<?xml version="1.0" encoding="UTF-8" standalone="no"?>
<svg
   xmlns:dc="http://purl.org/dc/elements/1.1/"
   xmlns:cc="http://creativecommons.org/ns#"
   xmlns:rdf="http://www.w3.org/1999/02/22-rdf-syntax-ns#"
   xmlns:svg="http://www.w3.org/2000/svg"
   xmlns="http://www.w3.org/2000/svg"
   xmlns:sodipodi="http://sodipodi.sourceforge.net/DTD/sodipodi-0.dtd"
   xmlns:inkscape="http://www.inkscape.org/namespaces/inkscape"
   width="343mm"
   height="102.3mm"
   viewBox="0 0 343 102.3"
   version="1.1"
   id="svg973"
   inkscape:version="1.0.1 (3bc2e813f5, 2020-09-07)"
   sodipodi:docname="Hochschule_Dreieck_Neu.svg">
  <defs
     id="defs967" />
  <sodipodi:namedview
     id="base"
     pagecolor="#ffffff"
     bordercolor="#666666"
     borderopacity="1.0"
     inkscape:pageopacity="0.0"
     inkscape:pageshadow="2"
     inkscape:zoom="0.46302886"
     inkscape:cx="510.23817"
     inkscape:cy="97.117353"
     inkscape:document-units="mm"
     inkscape:current-layer="layer1"
     inkscape:document-rotation="0"
     showgrid="false"
     inkscape:window-width="1920"
     inkscape:window-height="1137"
     inkscape:window-x="-8"
     inkscape:window-y="-8"
     inkscape:window-maximized="1"
     inkscape:pagecheckerboard="true"
     showguides="true"
     inkscape:guide-bbox="true"
     inkscape:snap-global="true">
    <sodipodi:guide
       position="-42.021619,-288.50808"
       orientation="0,-1"
       id="guide855" />
    <sodipodi:guide
       position="-39.999308,540.99239"
       orientation="0,-1"
       id="guide1304" />
    <sodipodi:guide
       position="-471.99183,502.13592"
       orientation="0,-1"
       id="guide1306" />
  </sodipodi:namedview>
  <metadata
     id="metadata970">
    <rdf:RDF>
      <cc:Work
         rdf:about="">
        <dc:format>image/svg+xml</dc:format>
        <dc:type
           rdf:resource="http://purl.org/dc/dcmitype/StillImage" />
        <dc:title></dc:title>
      </cc:Work>
    </rdf:RDF>
  </metadata>
  <g
     inkscape:label="Ebene 1"
     inkscape:groupmode="layer"
     id="layer1">
    <g
       id="g1499"
       transform="translate(-0.70997022,-0.74963788)">
      <path
         sodipodi:type="star"
         style="fill:#34495b;fill-opacity:1;stroke-width:6.042;stroke-linecap:round;stroke-linejoin:round;stroke-dashoffset:19.7216;paint-order:stroke markers fill"
         id="path853"
         sodipodi:sides="3"
         sodipodi:cx="44.160133"
         sodipodi:cy="46.114124"
         sodipodi:r1="68.026855"
         sodipodi:r2="34.013428"
         sodipodi:arg1="0.52359878"
         sodipodi:arg2="1.5707963"
         inkscape:flatsided="true"
         inkscape:rounded="0"
         inkscape:randomized="0"
         inkscape:transform-center-x="-1.9288702e-06"
         inkscape:transform-center-y="-12.350132"
         transform="matrix(1.0281888,0,0,1.0006242,16.101804,22.77406)"
         d="m 103.07312,80.127552 -117.825972,0 58.912986,-102.040283 z" />
      <path
         id="path846-7-5-34"
         style="fill:#009999;fill-opacity:1;stroke-width:0.22497"
         d="m 61.33415,23.676443 -2.331192,4.005989 c -3.888053,6.682062 -6.291918,10.881292 -6.291918,10.989877 0,0.05696 3.897148,0.102845 8.660893,0.102845 4.7637,0 8.661318,-0.04887 8.661318,-0.108365 0,-0.05949 -0.405014,-0.769953 -0.899787,-1.578579 -0.494941,-0.808627 -0.899788,-1.517594 -0.899788,-1.575051 0,-0.05738 -0.405014,-0.766045 -0.899786,-1.574629 -0.494941,-0.808626 -0.899787,-1.515342 -0.899787,-1.570674 0,-0.05526 -0.5439,-0.997661 -1.208668,-2.093965 C 64.560709,29.17763 63.68349,27.680733 63.27652,26.947585 62.869381,26.214436 62.265896,25.178356 61.935171,24.64542 Z m 0.144494,17.599434 c -1.559921,0 -3.128002,0.0085 -4.328045,0.02549 l -4.363574,0.0612 1.946279,3.374201 c 1.070462,1.856012 2.740883,4.741432 3.712535,6.411851 0.971608,1.670376 2.026008,3.517974 2.343051,4.105734 0.31704,0.587718 0.594686,1.068464 0.616829,1.068464 0.02124,0 0.427199,-0.68317 0.90021,-1.518357 0.473011,-0.835232 0.98385,-1.72129 1.135274,-1.968719 0.151291,-0.247344 0.348065,-0.595538 0.437143,-0.773695 0.08881,-0.178068 1.502548,-2.658816 3.141348,-5.512064 l 2.979683,-5.187415 -4.242369,-0.0612 c -1.166679,-0.01704 -2.718483,-0.02549 -4.278364,-0.02549 z m 10.800077,1.3286 c -0.06461,-0.0027 -0.580367,0.830174 -1.14628,1.850952 -0.565874,1.020826 -2.142412,3.782786 -3.50378,6.137693 -2.91908,5.04938 -3.66944,6.383378 -3.66944,6.524771 0,0.05738 3.804714,0.104549 8.454816,0.104549 h 8.454392 L 80.381605,56.434723 C 79.79104,55.479134 75.204601,47.565755 73.572133,44.685647 72.924961,43.54383 72.343108,42.606984 72.278722,42.604435 Z m -21.817617,0.0085 c -0.09434,0.0027 -1.984699,3.19694 -3.712068,6.273011 -0.247343,0.440712 -0.716828,1.25686 -1.043008,1.813638 -0.32639,0.556779 -0.818444,1.417124 -1.09443,1.912026 -0.27582,0.494942 -0.994518,1.735272 -1.5966,2.756053 l -1.094386,1.855777 h 8.542235 8.542704 L 58.276652,55.926978 C 56.056298,51.977938 50.557196,42.610077 50.461106,42.612625 Z m -8.308536,17.310781 0.41734,0.731066 c 0.229493,0.402039 1.474116,2.553375 2.765699,4.780574 1.291629,2.227155 3.03421,5.239432 3.872416,6.693874 l 1.524094,2.644452 0.427072,-0.542586 c 0.235019,-0.29834 0.426604,-0.595152 0.426604,-0.659029 0,-0.06375 0.494136,-0.959116 1.097919,-1.989375 2.16825,-3.699486 6.55112,-11.418093 6.55112,-11.53726 0,-0.06672 -3.843688,-0.121539 -8.541345,-0.121539 z m 21.3809,0 2.046491,3.543345 c 1.125414,1.948787 2.284188,3.920523 2.575009,4.382064 0.290691,0.461537 0.528559,0.881128 0.528559,0.932298 0,0.05101 0.708498,1.286269 1.574626,2.744154 0.866127,1.457881 1.575054,2.734122 1.575054,2.835994 0,0.681894 0.766382,-0.475862 3.625069,-5.476877 1.780108,-3.11419 3.661024,-6.404499 4.17998,-7.31168 l 0.943686,-1.649298 h -8.524217 z m 19.457016,0.951637 -2.339098,4.079764 c -1.286441,2.243943 -2.874413,4.990731 -3.528855,6.104331 -0.654438,1.113599 -1.467784,2.53098 -1.807476,3.149678 -0.339567,0.618655 -0.717723,1.251253 -0.840034,1.405906 -0.177212,0.223969 1.551126,0.281344 8.488643,0.281344 h 8.71096 l -0.49953,-0.843587 c -0.93697,-1.581894 -3.88928,-6.689709 -4.45325,-7.70484 -0.30939,-0.556817 -0.78338,-1.366932 -1.05355,-1.799996 -0.27029,-0.433065 -0.80038,-1.343985 -1.17832,-2.02452 -0.37781,-0.680535 -0.8697,-1.554907 -1.09312,-1.942795 z m -43.177013,0.128763 -0.532935,0.865915 c -0.293243,0.476286 -1.349043,2.282955 -2.346109,4.01521 -0.997026,1.732298 -2.37229,4.111217 -3.056097,5.286693 -1.753802,3.014787 -2.539438,4.435569 -2.539438,4.590774 0,0.07352 3.856734,0.133451 8.570798,0.133451 h 8.571262 l -0.498637,-0.843665 c -0.274119,-0.464046 -2.224478,-3.81466 -4.333741,-7.446105 z m 21.694627,0.621675 c -0.130895,-0.08075 -2.085464,3.235058 -7.636756,12.954641 l -0.751762,1.315851 h 8.365653 8.366078 l -0.55886,-0.956001 c -0.307267,-0.525832 -0.840077,-1.462081 -1.18402,-2.080739 -0.343815,-0.618697 -0.996597,-1.732467 -1.450315,-2.474836 -0.453676,-0.74243 -0.86685,-1.453097 -0.918232,-1.579488 -0.206119,-0.507054 -4.086057,-7.08937 -4.231784,-7.179382 z"
         inkscape:export-xdpi="96"
         inkscape:export-ydpi="96"
         inkscape:export-filename="Z:\9  Sonstiges\Vorlagen Logo\Neu\EAH Hochschulbibliothek Banner_Oben_1.png" />
      <g
         id="g1405"
         transform="translate(2.8570934)">
        <g
           aria-label="Hochschulbibliothek"
           transform="matrix(0.9422648,0,0,1.0612728,17.268571,20.024798)"
           id="text850-1"
           style="font-style:normal;font-variant:normal;font-weight:normal;font-stretch:normal;font-size:30.505px;line-height:1.25;font-family:'Univers LT Std';-inkscape-font-specification:'Univers LT Std';fill:#ffffff;fill-opacity:1;stroke:none;stroke-width:0.762626">
          <path
             d="m 91.520591,26.713377 v -10.06665 h 7.717765 v 10.06665 h 2.806464 V 4.6887676 H 99.238356 V 14.206327 H 91.520591 V 4.6887676 h -2.80646 V 26.713377 Z"
             style="font-style:normal;font-variant:normal;font-weight:normal;font-stretch:normal;font-family:'Univers LT Std';-inkscape-font-specification:'Univers LT Std';fill:#ffffff;fill-opacity:1;stroke-width:0.762626"
             id="path1562" />
          <path
             d="m 112.32494,24.974592 c -2.59292,0 -3.23353,-1.799795 -3.23353,-6.802615 0,-4.20969 1.31172,-5.12484 3.23353,-5.12484 1.92182,0 3.23353,0.91515 3.23353,5.12484 0,5.00282 -0.6406,6.802615 -3.23353,6.802615 z m 0,2.043835 c 3.26404,0 5.85696,-0.97616 5.85696,-7.778775 0,-4.51474 -0.51858,-8.23635 -5.85696,-8.23635 -5.33837,0 -5.85696,3.72161 -5.85696,8.23635 0,6.802615 2.59293,7.778775 5.85696,7.778775 z"
             style="font-style:normal;font-variant:normal;font-weight:normal;font-stretch:normal;font-family:'Univers LT Std';-inkscape-font-specification:'Univers LT Std';fill:#ffffff;fill-opacity:1;stroke-width:0.762626"
             id="path1564" />
          <path
             d="m 132.79374,16.250162 c 0.15252,-3.447065 -1.64727,-5.24686 -4.72828,-5.24686 -5.33837,0 -5.85696,3.72161 -5.85696,8.23635 0,6.802615 2.59293,7.778775 5.85696,7.778775 1.70828,0 4.94181,-1.09818 4.8503,-5.42989 h -2.62343 c 0.0915,2.775955 -1.64727,3.386055 -2.22687,3.386055 -2.59292,0 -3.23353,-1.799795 -3.23353,-6.802615 0,-4.20969 1.31172,-5.12484 3.23353,-5.12484 0.94566,0 2.19636,0.67111 2.13535,3.203025 z"
             style="font-style:normal;font-variant:normal;font-weight:normal;font-stretch:normal;font-family:'Univers LT Std';-inkscape-font-specification:'Univers LT Std';fill:#ffffff;fill-opacity:1;stroke-width:0.762626"
             id="path1566" />
          <path
             d="m 148.25971,26.713377 v -10.92079 c 0,-3.47757 -1.46424,-4.789285 -4.08767,-4.789285 -2.01333,0 -3.17252,0.48808 -4.17918,2.287875 h -0.12202 V 4.6887676 h -2.50141 V 26.713377 h 2.50141 v -9.059985 c 0,-2.592925 0.6406,-4.606255 3.14201,-4.606255 2.13535,0 2.74545,1.34222 2.74545,3.23353 v 10.43271 z"
             style="font-style:normal;font-variant:normal;font-weight:normal;font-stretch:normal;font-family:'Univers LT Std';-inkscape-font-specification:'Univers LT Std';fill:#ffffff;fill-opacity:1;stroke-width:0.762626"
             id="path1568" />
          <path
             d="m 162.5665,22.320657 c 0,-4.69777 -7.68726,-4.63676 -7.68726,-7.351705 0,-1.34222 1.03717,-2.07434 2.37939,-2.07434 1.58626,0 2.4404,0.85414 2.4099,2.470905 h 2.77595 c 0.21354,-3.0505 -2.13535,-4.362215 -4.8808,-4.362215 -4.33171,0 -5.30787,2.592925 -5.30787,4.20969 0,4.606255 7.68726,4.667265 7.68726,7.412715 0,1.58626 -1.15919,2.348885 -2.65393,2.348885 -2.53192,0 -2.56242,-2.07434 -2.56242,-2.958985 h -2.83697 c -0.0915,3.53858 1.98283,5.00282 5.30787,5.00282 3.0505,0 5.36888,-1.311715 5.36888,-4.69777 z"
             style="font-style:normal;font-variant:normal;font-weight:normal;font-stretch:normal;font-family:'Univers LT Std';-inkscape-font-specification:'Univers LT Std';fill:#ffffff;fill-opacity:1;stroke-width:0.762626"
             id="path1570" />
          <path
             d="m 176.84279,16.250162 c 0.15252,-3.447065 -1.64727,-5.24686 -4.72828,-5.24686 -5.33837,0 -5.85696,3.72161 -5.85696,8.23635 0,6.802615 2.59293,7.778775 5.85696,7.778775 1.70828,0 4.94181,-1.09818 4.8503,-5.42989 h -2.62343 c 0.0915,2.775955 -1.64727,3.386055 -2.22687,3.386055 -2.59292,0 -3.23353,-1.799795 -3.23353,-6.802615 0,-4.20969 1.31172,-5.12484 3.23353,-5.12484 0.94566,0 2.19636,0.67111 2.13535,3.203025 z"
             style="font-style:normal;font-variant:normal;font-weight:normal;font-stretch:normal;font-family:'Univers LT Std';-inkscape-font-specification:'Univers LT Std';fill:#ffffff;fill-opacity:1;stroke-width:0.762626"
             id="path1572" />
          <path
             d="m 192.30876,26.713377 v -10.92079 c 0,-3.47757 -1.46424,-4.789285 -4.08767,-4.789285 -2.01333,0 -3.17252,0.48808 -4.17918,2.287875 h -0.12202 V 4.6887676 h -2.50141 V 26.713377 h 2.50141 v -9.059985 c 0,-2.592925 0.6406,-4.606255 3.14201,-4.606255 2.13535,0 2.74545,1.34222 2.74545,3.23353 v 10.43271 z"
             style="font-style:normal;font-variant:normal;font-weight:normal;font-stretch:normal;font-family:'Univers LT Std';-inkscape-font-specification:'Univers LT Std';fill:#ffffff;fill-opacity:1;stroke-width:0.762626"
             id="path1574" />
          <path
             d="m 204.93778,21.527527 c 0,2.56242 -1.67778,3.569085 -3.02,3.569085 -1.76929,0 -2.62343,-1.250705 -2.62343,-3.11151 v -10.67675 h -2.50141 v 11.744425 c 0,2.62343 1.46424,3.96565 4.14868,3.96565 1.61677,0 3.08101,-0.762625 3.90464,-2.165855 h 0.0915 v 1.860805 h 2.65393 c -0.0915,-1.067675 -0.15252,-2.13535 -0.15252,-3.203025 v -12.202 h -2.50141 z"
             style="font-style:normal;font-variant:normal;font-weight:normal;font-stretch:normal;font-family:'Univers LT Std';-inkscape-font-specification:'Univers LT Std';fill:#ffffff;fill-opacity:1;stroke-width:0.762626"
             id="path1576" />
          <path
             d="m 214.39427,4.6887676 h -2.50141 V 26.713377 h 2.50141 z"
             style="font-style:normal;font-variant:normal;font-weight:normal;font-stretch:normal;font-family:'Univers LT Std';-inkscape-font-specification:'Univers LT Std';fill:#ffffff;fill-opacity:1;stroke-width:0.762626"
             id="path1578" />
          <path
             d="m 221.44088,18.385512 c 0,-2.043835 0.12202,-5.338375 2.89797,-5.338375 2.68444,0 3.0505,2.13535 3.0505,6.253525 0,2.31838 0,5.67393 -3.14201,5.67393 -3.08101,0 -2.80646,-4.240195 -2.80646,-6.58908 z m 0,6.497565 h 0.061 c 0.85414,1.433735 1.92181,2.13535 3.53858,2.13535 2.4709,0 4.97231,-0.97616 4.97231,-7.74827 0,-3.84363 -0.12202,-8.266855 -5.09433,-8.266855 -1.46424,0 -2.53192,0.640605 -3.38606,1.860805 h -0.0915 V 4.6887676 h -2.50141 V 26.713377 h 2.50141 z"
             style="font-style:normal;font-variant:normal;font-weight:normal;font-stretch:normal;font-family:'Univers LT Std';-inkscape-font-specification:'Univers LT Std';fill:#ffffff;fill-opacity:1;stroke-width:0.762626"
             id="path1580" />
          <path
             d="m 236.41877,11.308352 h -2.50141 v 15.405025 h 2.50141 z m -2.65393,-3.9351445 h 2.80646 V 4.6887676 h -2.80646 z"
             style="font-style:normal;font-variant:normal;font-weight:normal;font-stretch:normal;font-family:'Univers LT Std';-inkscape-font-specification:'Univers LT Std';fill:#ffffff;fill-opacity:1;stroke-width:0.762626"
             id="path1582" />
          <path
             d="m 243.46537,18.385512 c 0,-2.043835 0.12202,-5.338375 2.89797,-5.338375 2.68444,0 3.0505,2.13535 3.0505,6.253525 0,2.31838 0,5.67393 -3.14201,5.67393 -3.08101,0 -2.80646,-4.240195 -2.80646,-6.58908 z m 0,6.497565 h 0.061 c 0.85414,1.433735 1.92181,2.13535 3.53858,2.13535 2.4709,0 4.97231,-0.97616 4.97231,-7.74827 0,-3.84363 -0.12202,-8.266855 -5.09433,-8.266855 -1.46424,0 -2.53192,0.640605 -3.38606,1.860805 h -0.0915 V 4.6887676 h -2.50141 V 26.713377 h 2.50141 z"
             style="font-style:normal;font-variant:normal;font-weight:normal;font-stretch:normal;font-family:'Univers LT Std';-inkscape-font-specification:'Univers LT Std';fill:#ffffff;fill-opacity:1;stroke-width:0.762626"
             id="path1584" />
          <path
             d="m 258.44326,4.6887676 h -2.50141 V 26.713377 h 2.50141 z"
             style="font-style:normal;font-variant:normal;font-weight:normal;font-stretch:normal;font-family:'Univers LT Std';-inkscape-font-specification:'Univers LT Std';fill:#ffffff;fill-opacity:1;stroke-width:0.762626"
             id="path1586" />
          <path
             d="m 265.21531,11.308352 h -2.50141 v 15.405025 h 2.50141 z m -2.65393,-3.9351445 h 2.80646 V 4.6887676 h -2.80646 z"
             style="font-style:normal;font-variant:normal;font-weight:normal;font-stretch:normal;font-family:'Univers LT Std';-inkscape-font-specification:'Univers LT Std';fill:#ffffff;fill-opacity:1;stroke-width:0.762626"
             id="path1588" />
          <path
             d="m 274.97687,24.974592 c -2.59293,0 -3.23353,-1.799795 -3.23353,-6.802615 0,-4.20969 1.31171,-5.12484 3.23353,-5.12484 1.92181,0 3.23353,0.91515 3.23353,5.12484 0,5.00282 -0.64061,6.802615 -3.23353,6.802615 z m 0,2.043835 c 3.26403,0 5.85696,-0.97616 5.85696,-7.778775 0,-4.51474 -0.51859,-8.23635 -5.85696,-8.23635 -5.33838,0 -5.85696,3.72161 -5.85696,8.23635 0,6.802615 2.59292,7.778775 5.85696,7.778775 z"
             style="font-style:normal;font-variant:normal;font-weight:normal;font-stretch:normal;font-family:'Univers LT Std';-inkscape-font-specification:'Univers LT Std';fill:#ffffff;fill-opacity:1;stroke-width:0.762626"
             id="path1590" />
          <path
             d="m 282.54205,11.308352 v 1.89131 h 2.53191 v 10.951295 c 0,1.76929 1.06768,2.74545 3.44707,2.74545 0.82363,0 1.64727,-0.18303 2.4709,-0.24404 v -1.921815 c -0.54909,0.06101 -0.94565,0.12202 -1.12868,0.12202 -2.28788,0 -2.28788,-1.250705 -2.28788,-2.226865 v -9.426045 h 3.35555 v -1.89131 h -3.35555 V 7.2206825 l -2.50141,1.128685 v 2.9589845 z"
             style="font-style:normal;font-variant:normal;font-weight:normal;font-stretch:normal;font-family:'Univers LT Std';-inkscape-font-specification:'Univers LT Std';fill:#ffffff;fill-opacity:1;stroke-width:0.762626"
             id="path1592" />
          <path
             d="m 304.13957,26.713377 v -10.92079 c 0,-3.47757 -1.46424,-4.789285 -4.08767,-4.789285 -2.01333,0 -3.17252,0.48808 -4.17918,2.287875 H 295.7507 V 4.6887676 h -2.50141 V 26.713377 h 2.50141 v -9.059985 c 0,-2.592925 0.6406,-4.606255 3.14201,-4.606255 2.13535,0 2.74545,1.34222 2.74545,3.23353 v 10.43271 z"
             style="font-style:normal;font-variant:normal;font-weight:normal;font-stretch:normal;font-family:'Univers LT Std';-inkscape-font-specification:'Univers LT Std';fill:#ffffff;fill-opacity:1;stroke-width:0.762626"
             id="path1594" />
          <path
             d="m 310.97264,17.927937 c 0.0305,-4.2707 1.34222,-5.033325 2.92848,-5.033325 1.8303,0 3.081,0.54909 3.081,5.033325 z m 8.66342,1.89131 v -1.311715 c 0,-5.094335 -1.09818,-7.50423 -5.4909,-7.50423 -5.33838,0 -5.85696,3.72161 -5.85696,8.23635 0,6.802615 2.59292,7.778775 5.85696,7.778775 3.23353,0 5.33837,-1.555755 5.36888,-4.972315 h -2.74545 c -0.0915,1.555755 -0.97616,2.92848 -2.68444,2.92848 -1.95232,0 -3.11151,-0.85414 -3.11151,-5.155345 z"
             style="font-style:normal;font-variant:normal;font-weight:normal;font-stretch:normal;font-family:'Univers LT Std';-inkscape-font-specification:'Univers LT Std';fill:#ffffff;fill-opacity:1;stroke-width:0.762626"
             id="path1596" />
          <path
             d="m 326.28609,18.080462 h 0.061 l 5.4909,8.632915 h 3.17252 l -6.03999,-8.78544 5.12484,-6.619585 h -3.0505 l -4.69777,6.65009 h -0.061 V 4.6887676 h -2.50141 V 26.713377 h 2.50141 z"
             style="font-style:normal;font-variant:normal;font-weight:normal;font-stretch:normal;font-family:'Univers LT Std';-inkscape-font-specification:'Univers LT Std';fill:#ffffff;fill-opacity:1;stroke-width:0.762626"
             id="path1598" />
        </g>
        <path
           d="m 100.79105,60.02026 h 2.38822 v 15.91509 h -2.38822 z m 1.06842,13.50703 h 7.18563 v 2.40806 h -7.18563 z m 0,-6.69879 h 6.35813 v 2.40806 h -6.35813 z m 0,-6.80824 h 7.18563 v 2.40806 h -7.18563 z"
           id="path964"
           style="font-weight:600;font-stretch:semi-condensed;font-size:21.9292px;line-height:1.25;font-family:Bahnschrift;-inkscape-font-specification:'Bahnschrift Semi-Bold Semi-Condensed';fill:#ffffff;fill-opacity:1;stroke-width:0.195983" />
        <path
           d="m 111.1086,64.57368 h 2.45108 v 11.36167 h -2.45108 z m 5.55159,2.59414 q -0.16761,-0.14229 -0.40852,-0.20797 -0.24091,-0.0766 -0.55515,-0.0766 -1.01605,0 -1.58168,0.59107 -0.55516,0.59107 -0.55516,1.63092 l -0.21997,-2.55036 q 0.49231,-1.01795 1.25696,-1.58713 0.77513,-0.58013 1.6969,-0.58013 0.34567,0 0.61801,0.10946 0.28282,0.10946 0.49231,0.31743 z"
           id="path966"
           style="font-weight:600;font-stretch:semi-condensed;font-size:21.9292px;line-height:1.25;font-family:Bahnschrift;-inkscape-font-specification:'Bahnschrift Semi-Bold Semi-Condensed';fill:#ffffff;fill-opacity:1;stroke-width:0.195983" />
        <path
           d="m 118.98557,64.57368 h 2.3987 v 11.36167 h -2.3987 z m 5.41541,3.91858 q 0,-0.85377 -0.39804,-1.30255 -0.38757,-0.45972 -1.13127,-0.45972 -0.72275,0 -1.11031,0.44878 -0.37709,0.43783 -0.37709,1.25876 l -0.21997,-1.90456 q 0.42946,-1.05079 1.11032,-1.59808 0.69132,-0.54729 1.59215,-0.54729 1.40361,0 2.16825,0.98512 0.76466,0.98512 0.76466,2.79116 v 7.77147 h -2.3987 z"
           id="path968"
           style="font-weight:600;font-stretch:semi-condensed;font-size:21.9292px;line-height:1.25;font-family:Bahnschrift;-inkscape-font-specification:'Bahnschrift Semi-Bold Semi-Condensed';fill:#ffffff;fill-opacity:1;stroke-width:0.195983" />
        <path
           d="m 132.61313,76.09954 q -1.11032,0 -1.9483,-0.31743 -0.82749,-0.31742 -1.37218,-0.93038 -0.53421,-0.62391 -0.75418,-1.53241 v 0 l 2.04257,-0.95227 v 0 q 0.29328,0.72241 0.82749,1.09457 0.53422,0.37215 1.27792,0.37215 0.7856,0 1.21506,-0.32837 0.43993,-0.32837 0.43993,-0.91944 0,-0.42688 -0.25139,-0.67864 -0.24091,-0.26269 -0.618,-0.3831 -0.36661,-0.1204 -1.03699,-0.27364 -0.10475,-0.0219 -0.20949,-0.0438 -0.10475,-0.0219 -0.20951,-0.0547 -0.0419,-0.011 -0.0734,-0.011 -0.0314,-0.011 -0.0629,-0.011 -0.91129,-0.22986 -1.53977,-0.52539 -0.61801,-0.30649 -1.03699,-0.96323 -0.40852,-0.65674 -0.40852,-1.77321 0,-1.09457 0.43994,-1.87172 0.43994,-0.77715 1.27791,-1.18214 0.83798,-0.41594 2.01114,-0.41594 1.00557,0 1.77022,0.29554 0.77513,0.28459 1.27791,0.86471 0.51326,0.58013 0.73323,1.412 v 0 l -2.04256,0.93039 v 0 q -0.25139,-0.61296 -0.7018,-0.93039 -0.45042,-0.32837 -1.05795,-0.32837 -0.7018,0 -1.08936,0.31743 -0.3771,0.30648 -0.3771,0.87565 0,0.41594 0.2514,0.65675 0.26187,0.2408 0.63895,0.36121 0.37709,0.1204 1.06842,0.25175 0.0314,0.011 0.0628,0.0219 0.0419,0 0.0734,0.0109 0.0209,0 0.0419,0.011 0.0314,0 0.0523,0 1.00557,0.20797 1.66547,0.49256 0.67038,0.28459 1.13127,0.98512 0.46088,0.68958 0.46088,1.93739 0,1.11647 -0.47136,1.9155 -0.47136,0.7881 -1.36171,1.20403 -0.89035,0.41594 -2.13683,0.41594 z"
           id="path970"
           style="font-weight:600;font-stretch:semi-condensed;font-size:21.9292px;line-height:1.25;font-family:Bahnschrift;-inkscape-font-specification:'Bahnschrift Semi-Bold Semi-Condensed';fill:#ffffff;fill-opacity:1;stroke-width:0.195983" />
        <path
           d="m 141.66325,75.99008 q -1.38266,0 -2.03209,-0.75525 -0.63895,-0.7662 -0.63895,-2.25482 V 61.26807 h 2.38822 v 11.42735 q 0,0.42688 0.16759,0.65674 0.17807,0.22986 0.50279,0.22986 h 0.81702 v 2.40806 z m -3.74994,-11.4164 h 4.95452 v 2.25482 h -4.95452 z"
           id="path972"
           style="font-weight:600;font-stretch:semi-condensed;font-size:21.9292px;line-height:1.25;font-family:Bahnschrift;-inkscape-font-specification:'Bahnschrift Semi-Bold Semi-Condensed';fill:#ffffff;fill-opacity:1;stroke-width:0.195983" />
        <path
           d="m 151.3628,69.03954 v 2.38617 h -6.32671 v -2.38617 z"
           id="path974"
           style="font-weight:600;font-stretch:semi-condensed;font-size:21.9292px;line-height:1.25;font-family:Bahnschrift;-inkscape-font-specification:'Bahnschrift Semi-Bold Semi-Condensed';fill:#ffffff;fill-opacity:1;stroke-width:0.195983" />
        <path
           d="m 157.21815,60.02026 h 1.82258 l 4.59839,15.91509 h -2.51392 l -2.99576,-11.69004 -2.99576,11.69004 h -2.52439 z m -2.08447,10.55168 h 6.09627 v 2.36428 h -6.09627 z"
           id="path976"
           style="font-weight:600;font-stretch:semi-condensed;font-size:21.9292px;line-height:1.25;font-family:Bahnschrift;-inkscape-font-specification:'Bahnschrift Semi-Bold Semi-Condensed';fill:#ffffff;fill-opacity:1;stroke-width:0.195983" />
        <path
           d="m 169.94488,76.09954 q -0.8694,0 -1.50835,-0.5035 -0.62848,-0.51445 -0.93225,-1.44484 l 0.14665,-2.06874 q 0,0.54728 0.16759,0.94133 0.17807,0.3831 0.49231,0.59107 0.32471,0.19702 0.7856,0.19702 0.71227,0 1.09985,-0.49256 0.38756,-0.5035 0.38756,-1.412 v -3.3275 q 0,-0.89755 -0.38756,-1.40105 -0.38758,-0.50351 -1.09985,-0.50351 -0.46089,0 -0.7856,0.19703 -0.31424,0.19702 -0.49231,0.58012 -0.16759,0.3831 -0.16759,0.93039 l -0.21997,-1.91551 q 0.40851,-0.98511 1.07889,-1.5324 0.68086,-0.54729 1.49788,-0.54729 0.93225,0 1.59215,0.48162 0.67037,0.47066 1.01605,1.37916 0.34566,0.90849 0.34566,2.20009 v 3.57926 q 0,1.29159 -0.35614,2.21104 -0.34566,0.90849 -1.02652,1.3901 -0.68085,0.47067 -1.63405,0.47067 z m -4.69266,-16.07928 h 2.39871 v 15.91509 h -2.39871 z"
           id="path978"
           style="font-weight:600;font-stretch:semi-condensed;font-size:21.9292px;line-height:1.25;font-family:Bahnschrift;-inkscape-font-specification:'Bahnschrift Semi-Bold Semi-Condensed';fill:#ffffff;fill-opacity:1;stroke-width:0.195983" />
        <path
           d="m 180.032,76.09954 q -0.86941,0 -1.50836,-0.5035 -0.62848,-0.51445 -0.93225,-1.44484 l 0.14665,-2.06874 q 0,0.54728 0.16759,0.94133 0.17807,0.3831 0.49231,0.59107 0.32471,0.19702 0.7856,0.19702 0.71228,0 1.09985,-0.49256 0.38756,-0.5035 0.38756,-1.412 v -3.3275 q 0,-0.89755 -0.38756,-1.40105 -0.38757,-0.50351 -1.09985,-0.50351 -0.46089,0 -0.7856,0.19703 -0.31424,0.19702 -0.49231,0.58012 -0.16759,0.3831 -0.16759,0.93039 l -0.21997,-1.91551 q 0.40851,-0.98511 1.07889,-1.5324 0.68086,-0.54729 1.49788,-0.54729 0.93225,0 1.59215,0.48162 0.67038,0.47066 1.01605,1.37916 0.34566,0.90849 0.34566,2.20009 v 3.57926 q 0,1.29159 -0.35614,2.21104 -0.34566,0.90849 -1.02652,1.3901 -0.68085,0.47067 -1.63404,0.47067 z m -4.69267,-16.07928 h 2.39871 v 15.91509 h -2.39871 z"
           id="path980"
           style="font-weight:600;font-stretch:semi-condensed;font-size:21.9292px;line-height:1.25;font-family:Bahnschrift;-inkscape-font-specification:'Bahnschrift Semi-Bold Semi-Condensed';fill:#ffffff;fill-opacity:1;stroke-width:0.195983" />
        <path
           d="m 189.26019,76.09954 q -1.29886,0 -2.22063,-0.5035 -0.9113,-0.51445 -1.39314,-1.47768 -0.48183,-0.97417 -0.48183,-2.35333 v -2.824 q 0,-1.43389 0.46089,-2.45184 0.47136,-1.0289 1.36171,-1.5543 0.89034,-0.53634 2.13683,-0.53634 1.21506,0 2.08446,0.56918 0.8694,0.56918 1.31981,1.66375 0.4504,1.08363 0.4504,2.61603 v 1.98118 h -6.08578 v -1.89361 h 3.81278 v -0.73337 q 0,-0.90849 -0.42946,-1.43389 -0.42946,-0.52539 -1.15221,-0.52539 -0.80656,0 -1.25696,0.56917 -0.43994,0.56918 -0.43994,1.60903 v 3.01007 q 0,0.95228 0.47136,1.47768 0.47136,0.51445 1.33029,0.51445 0.58657,0 0.97414,-0.29554 0.39804,-0.29553 0.55516,-0.86471 v 0 l 2.09493,0.71147 v 0 q -0.28281,1.34633 -1.20458,2.03591 -0.91131,0.68958 -2.38823,0.68958 z"
           id="path982"
           style="font-weight:600;font-stretch:semi-condensed;font-size:21.9292px;line-height:1.25;font-family:Bahnschrift;-inkscape-font-specification:'Bahnschrift Semi-Bold Semi-Condensed';fill:#ffffff;fill-opacity:1;stroke-width:0.195983" />
        <path
           d="m 201.64125,69.03954 v 2.38617 h -6.3267 v -2.38617 z"
           id="path984"
           style="font-weight:600;font-stretch:semi-condensed;font-size:21.9292px;line-height:1.25;font-family:Bahnschrift;-inkscape-font-specification:'Bahnschrift Semi-Bold Semi-Condensed';fill:#ffffff;fill-opacity:1;stroke-width:0.195983" />
        <path
           d="m 210.87991,60.02026 h 2.39871 v 15.91509 h -2.39871 z m -6.58857,0 h 2.39871 v 15.91509 h -2.39871 z m 1.29887,6.87392 h 6.70379 v 2.37522 h -6.70379 z"
           id="path986"
           style="font-weight:600;font-stretch:semi-condensed;font-size:21.9292px;line-height:1.25;font-family:Bahnschrift;-inkscape-font-specification:'Bahnschrift Semi-Bold Semi-Condensed';fill:#ffffff;fill-opacity:1;stroke-width:0.195983" />
        <path
           d="m 219.5739,76.09954 q -1.21505,0 -2.08445,-0.47067 -0.8694,-0.48161 -1.33029,-1.37916 -0.45041,-0.90849 -0.45041,-2.18915 v -3.68871 q 0,-1.25876 0.45041,-2.14536 0.46089,-0.89755 1.33029,-1.36822 0.8694,-0.47067 2.08445,-0.47067 1.22555,0 2.08447,0.47067 0.8694,0.47067 1.31981,1.36822 0.45041,0.8866 0.45041,2.14536 v 3.72155 q 0,1.26971 -0.45041,2.16726 -0.45041,0.89755 -1.31981,1.36821 -0.85892,0.47067 -2.08447,0.47067 z m -0.0104,-2.36428 q 0.71227,0 1.08936,-0.44877 0.38756,-0.44878 0.38756,-1.26971 v -3.56831 q 0,-0.80998 -0.38756,-1.24781 -0.37709,-0.44878 -1.08936,-0.44878 -0.69134,0 -1.0789,0.44878 -0.38756,0.44877 -0.38756,1.24781 v 3.56831 q 0,0.82093 0.37708,1.26971 0.38757,0.44877 1.08938,0.44877 z"
           id="path988"
           style="font-weight:600;font-stretch:semi-condensed;font-size:21.9292px;line-height:1.25;font-family:Bahnschrift;-inkscape-font-specification:'Bahnschrift Semi-Bold Semi-Condensed';fill:#ffffff;fill-opacity:1;stroke-width:0.195983" />
        <path
           d="m 229.59817,76.09954 q -1.27791,0 -2.1892,-0.48161 -0.9113,-0.49256 -1.39313,-1.42295 -0.47137,-0.93039 -0.47137,-2.23293 v -3.37128 q 0,-1.32444 0.47137,-2.26577 0.48183,-0.94133 1.39313,-1.43389 0.91129,-0.49256 2.1892,-0.49256 1.08937,0 1.85402,0.33932 0.77513,0.33932 1.23602,1.0289 0.46088,0.68958 0.60753,1.75132 v 0 l -2.21016,0.68958 v 0 q -0.13618,-0.74431 -0.51326,-1.10552 -0.36662,-0.37216 -0.96367,-0.37216 -0.79608,0 -1.23601,0.50351 -0.42946,0.5035 -0.42946,1.42294 v 3.25088 q 0,0.88661 0.42946,1.37917 0.43993,0.48161 1.23601,0.48161 0.59705,0 0.97415,-0.36121 0.37708,-0.36121 0.50278,-1.07268 v 0 l 2.22063,0.74431 v 0 q -0.14665,1.01795 -0.60753,1.69659 -0.46089,0.66769 -1.23601,0.99606 -0.77513,0.32837 -1.8645,0.32837 z"
           id="path990"
           style="font-weight:600;font-stretch:semi-condensed;font-size:21.9292px;line-height:1.25;font-family:Bahnschrift;-inkscape-font-specification:'Bahnschrift Semi-Bold Semi-Condensed';fill:#ffffff;fill-opacity:1;stroke-width:0.195983" />
        <path
           d="m 235.13928,60.02026 h 2.39871 v 15.91509 h -2.39871 z m 5.41541,8.49389 q 0,-0.86472 -0.39804,-1.31349 -0.38756,-0.44878 -1.13126,-0.44878 -0.72276,0 -1.11032,0.43783 -0.37708,0.42689 -0.37708,1.24782 l -0.2095,-1.90456 q 0.40851,-1.05079 1.09985,-1.59808 0.69132,-0.54729 1.59214,-0.54729 1.40361,0 2.16826,0.98512 0.76466,0.97417 0.76466,2.79116 v 7.77147 h -2.39871 z"
           id="path992"
           style="font-weight:600;font-stretch:semi-condensed;font-size:21.9292px;line-height:1.25;font-family:Bahnschrift;-inkscape-font-specification:'Bahnschrift Semi-Bold Semi-Condensed';fill:#ffffff;fill-opacity:1;stroke-width:0.195983" />
        <path
           d="m 248.76684,76.09954 q -1.11032,0 -1.9483,-0.31743 -0.82749,-0.31742 -1.37217,-0.93038 -0.53421,-0.62391 -0.75418,-1.53241 v 0 l 2.04256,-0.95227 v 0 q 0.29329,0.72241 0.82749,1.09457 0.53421,0.37215 1.27792,0.37215 0.7856,0 1.21506,-0.32837 0.43994,-0.32837 0.43994,-0.91944 0,-0.42688 -0.2514,-0.67864 -0.24091,-0.26269 -0.618,-0.3831 -0.36661,-0.1204 -1.03699,-0.27364 -0.10475,-0.0219 -0.20949,-0.0438 -0.10476,-0.0219 -0.2095,-0.0547 -0.0419,-0.011 -0.0734,-0.011 -0.0314,-0.011 -0.0628,-0.011 -0.9113,-0.22986 -1.53978,-0.52539 -0.618,-0.30649 -1.037,-0.96323 -0.4085,-0.65674 -0.4085,-1.77321 0,-1.09457 0.43994,-1.87172 0.43993,-0.77715 1.27791,-1.18214 0.83796,-0.41594 2.01113,-0.41594 1.00557,0 1.77023,0.29554 0.77512,0.28459 1.2779,0.86471 0.51326,0.58013 0.73323,1.412 v 0 l -2.04256,0.93039 v 0 q -0.25139,-0.61296 -0.70181,-0.93039 -0.45041,-0.32837 -1.05794,-0.32837 -0.7018,0 -1.08937,0.31743 -0.37708,0.30648 -0.37708,0.87565 0,0.41594 0.25139,0.65675 0.26187,0.2408 0.63895,0.36121 0.3771,0.1204 1.06842,0.25175 0.0314,0.011 0.0628,0.0219 0.0419,0 0.0734,0.0109 0.0209,0 0.0419,0.011 0.0314,0 0.0523,0 1.00557,0.20797 1.66547,0.49256 0.67038,0.28459 1.13126,0.98512 0.46089,0.68958 0.46089,1.93739 0,1.11647 -0.47136,1.9155 -0.47136,0.7881 -1.36171,1.20403 -0.89034,0.41594 -2.13683,0.41594 z"
           id="path994"
           style="font-weight:600;font-stretch:semi-condensed;font-size:21.9292px;line-height:1.25;font-family:Bahnschrift;-inkscape-font-specification:'Bahnschrift Semi-Bold Semi-Condensed';fill:#ffffff;fill-opacity:1;stroke-width:0.195983" />
        <path
           d="m 258.69682,76.09954 q -1.27791,0 -2.1892,-0.48161 -0.9113,-0.49256 -1.39313,-1.42295 -0.47136,-0.93039 -0.47136,-2.23293 v -3.37128 q 0,-1.32444 0.47136,-2.26577 0.48183,-0.94133 1.39313,-1.43389 0.91129,-0.49256 2.1892,-0.49256 1.08938,0 1.85402,0.33932 0.77512,0.33932 1.23601,1.0289 0.46089,0.68958 0.60753,1.75132 v 0 l -2.21016,0.68958 v 0 q -0.13616,-0.74431 -0.51325,-1.10552 -0.36662,-0.37216 -0.96367,-0.37216 -0.79608,0 -1.23601,0.50351 -0.42946,0.5035 -0.42946,1.42294 v 3.25088 q 0,0.88661 0.42946,1.37917 0.43993,0.48161 1.23601,0.48161 0.59705,0 0.97415,-0.36121 0.37708,-0.36121 0.50277,-1.07268 v 0 l 2.22064,0.74431 v 0 q -0.14665,1.01795 -0.60753,1.69659 -0.46089,0.66769 -1.23601,0.99606 -0.77512,0.32837 -1.8645,0.32837 z"
           id="path996"
           style="font-weight:600;font-stretch:semi-condensed;font-size:21.9292px;line-height:1.25;font-family:Bahnschrift;-inkscape-font-specification:'Bahnschrift Semi-Bold Semi-Condensed';fill:#ffffff;fill-opacity:1;stroke-width:0.195983" />
        <path
           d="m 264.23794,60.02026 h 2.3987 v 15.91509 h -2.3987 z m 5.41541,8.49389 q 0,-0.86472 -0.39804,-1.31349 -0.38756,-0.44878 -1.13126,-0.44878 -0.72276,0 -1.11032,0.43783 -0.37709,0.42689 -0.37709,1.24782 l -0.2095,-1.90456 q 0.40852,-1.05079 1.09984,-1.59808 0.69134,-0.54729 1.59216,-0.54729 1.4036,0 2.16826,0.98512 0.76465,0.97417 0.76465,2.79116 v 7.77147 h -2.3987 z"
           id="path998"
           style="font-weight:600;font-stretch:semi-condensed;font-size:21.9292px;line-height:1.25;font-family:Bahnschrift;-inkscape-font-specification:'Bahnschrift Semi-Bold Semi-Condensed';fill:#ffffff;fill-opacity:1;stroke-width:0.195983" />
        <path
           d="m 279.93948,64.57368 h 2.37776 v 11.36167 h -2.37776 z m -2.91196,7.66202 q 0,0.75525 0.37708,1.16024 0.3771,0.39405 1.08938,0.39405 0.7018,0 1.06841,-0.3831 0.37709,-0.39405 0.37709,-1.1493 l 0.14664,1.81699 q -0.30376,0.94133 -0.92177,1.48862 -0.60753,0.53634 -1.50835,0.53634 -1.46646,0 -2.24158,-0.97417 -0.77513,-0.98512 -0.77513,-2.84589 v -7.7058 h 2.38823 z"
           id="path1000"
           style="font-weight:600;font-stretch:semi-condensed;font-size:21.9292px;line-height:1.25;font-family:Bahnschrift;-inkscape-font-specification:'Bahnschrift Semi-Bold Semi-Condensed';fill:#ffffff;fill-opacity:1;stroke-width:0.195983" />
        <path
           d="m 287.3032,72.65163 q 0,0.42689 0.18851,0.65675 0.19905,0.22986 0.56566,0.22986 h 0.59706 v 2.40806 h -1.12081 q -1.24647,0 -1.93781,-0.78809 -0.69133,-0.7881 -0.69133,-2.22199 V 60.02026 h 2.39872 z"
           id="path1002"
           style="font-weight:600;font-stretch:semi-condensed;font-size:21.9292px;line-height:1.25;font-family:Bahnschrift;-inkscape-font-specification:'Bahnschrift Semi-Bold Semi-Condensed';fill:#ffffff;fill-opacity:1;stroke-width:0.195983" />
        <path
           d="m 294.30026,76.09954 q -1.29886,0 -2.22062,-0.5035 -0.9113,-0.51445 -1.39313,-1.47768 -0.48184,-0.97417 -0.48184,-2.35333 v -2.824 q 0,-1.43389 0.46088,-2.45184 0.47136,-1.0289 1.36171,-1.5543 0.89034,-0.53634 2.13685,-0.53634 1.21505,0 2.08444,0.56918 0.86939,0.56918 1.31982,1.66375 0.4504,1.08363 0.4504,2.61603 v 1.98118 h -6.08579 v -1.89361 h 3.81281 v -0.73337 q 0,-0.90849 -0.42947,-1.43389 -0.42947,-0.52539 -1.15221,-0.52539 -0.80656,0 -1.25698,0.56917 -0.43993,0.56918 -0.43993,1.60903 v 3.01007 q 0,0.95228 0.47136,1.47768 0.47135,0.51445 1.33027,0.51445 0.58661,0 0.97417,-0.29554 0.39804,-0.29553 0.55515,-0.86471 v 0 l 2.09494,0.71147 v 0 q -0.28281,1.34633 -1.20459,2.03591 -0.91131,0.68958 -2.38824,0.68958 z"
           id="path1004"
           style="font-weight:600;font-stretch:semi-condensed;font-size:21.9292px;line-height:1.25;font-family:Bahnschrift;-inkscape-font-specification:'Bahnschrift Semi-Bold Semi-Condensed';fill:#ffffff;fill-opacity:1;stroke-width:0.195983" />
        <path
           d="m 306.10523,76.09954 q -1.13128,0 -2.06351,-0.48161 -0.92178,-0.48161 -1.48741,-1.35727 l 1.83309,-1.56524 q 0.31422,0.45972 0.76462,0.71147 0.45042,0.24081 0.97417,0.24081 0.79605,0 1.22552,-0.5254 0.43995,-0.53634 0.43995,-1.49956 V 60.02026 h 2.41964 v 11.71193 q 0,1.37917 -0.48183,2.36428 -0.48183,0.97417 -1.40362,1.48862 -0.91127,0.51445 -2.22062,0.51445 z"
           id="path1006"
           style="font-weight:600;font-stretch:semi-condensed;font-size:21.9292px;line-height:1.25;font-family:Bahnschrift;-inkscape-font-specification:'Bahnschrift Semi-Bold Semi-Condensed';fill:#ffffff;fill-opacity:1;stroke-width:0.195983" />
        <path
           d="m 316.73704,76.09954 q -1.29887,0 -2.22065,-0.5035 -0.91128,-0.51445 -1.39314,-1.47768 -0.48183,-0.97417 -0.48183,-2.35333 v -2.824 q 0,-1.43389 0.4609,-2.45184 0.47136,-1.0289 1.36171,-1.5543 0.89035,-0.53634 2.13683,-0.53634 1.21507,0 2.08446,0.56918 0.8694,0.56918 1.31982,1.66375 0.4504,1.08363 0.4504,2.61603 v 1.98118 h -6.08578 v -1.89361 h 3.81277 v -0.73337 q 0,-0.90849 -0.42944,-1.43389 -0.42947,-0.52539 -1.15223,-0.52539 -0.80656,0 -1.25696,0.56917 -0.43992,0.56918 -0.43992,1.60903 v 3.01007 q 0,0.95228 0.47135,1.47768 0.47136,0.51445 1.33027,0.51445 0.58659,0 0.97415,-0.29554 0.39804,-0.29553 0.55517,-0.86471 v 0 l 2.09492,0.71147 v 0 q -0.28281,1.34633 -1.20457,2.03591 -0.9113,0.68958 -2.38823,0.68958 z"
           id="path1008"
           style="font-weight:600;font-stretch:semi-condensed;font-size:21.9292px;line-height:1.25;font-family:Bahnschrift;-inkscape-font-specification:'Bahnschrift Semi-Bold Semi-Condensed';fill:#ffffff;fill-opacity:1;stroke-width:0.195983" />
        <path
           d="m 322.79139,64.57368 h 2.39869 v 11.36167 h -2.39869 z m 5.41541,3.91858 q 0,-0.85377 -0.39804,-1.30255 -0.38756,-0.45972 -1.13127,-0.45972 -0.72274,0 -1.1103,0.44878 -0.37711,0.43783 -0.37711,1.25876 l -0.21995,-1.90456 q 0.42944,-1.05079 1.11032,-1.59808 0.69133,-0.54729 1.59213,-0.54729 1.40362,0 2.16826,0.98512 0.76465,0.98512 0.76465,2.79116 v 7.77147 h -2.39869 z"
           id="path1010"
           style="font-weight:600;font-stretch:semi-condensed;font-size:21.9292px;line-height:1.25;font-family:Bahnschrift;-inkscape-font-specification:'Bahnschrift Semi-Bold Semi-Condensed';fill:#ffffff;fill-opacity:1;stroke-width:0.195983" />
        <path
           d="m 338.36723,68.19672 q 0,-0.75526 -0.40852,-1.16025 -0.40849,-0.41593 -1.15221,-0.41593 -0.54467,0 -0.97414,0.26269 -0.41899,0.2627 -0.64942,0.73337 l -1.94831,-0.70053 q 0.30379,-1.20403 1.23603,-1.86077 0.94271,-0.6677 2.34632,-0.6677 1.2046,0 2.05303,0.44878 0.85892,0.43783 1.30935,1.28065 0.4504,0.84282 0.4504,2.03591 v 7.78241 h -2.26253 z m -2.36726,7.90282 q -1.56075,0 -2.34635,-0.84282 -0.7856,-0.84282 -0.7856,-2.51752 0,-1.78416 0.90083,-2.6817 0.9113,-0.89755 2.71293,-0.89755 h 1.96924 l 0.14666,2.02496 h -2.07399 q -0.71229,0 -1.06841,0.39404 -0.35616,0.3831 -0.35616,1.16025 0,0.6458 0.36663,0.96322 0.36661,0.30648 1.09985,0.30648 0.90083,0 1.35123,-0.31742 0.4504,-0.32837 0.4504,-0.98512 l 0.20949,1.30254 q -0.0838,0.68959 -0.42944,1.16025 -0.3352,0.45972 -0.89035,0.70053 -0.5447,0.22986 -1.25696,0.22986 z"
           id="path1012"
           style="font-weight:600;font-stretch:semi-condensed;font-size:21.9292px;line-height:1.25;font-family:Bahnschrift;-inkscape-font-specification:'Bahnschrift Semi-Bold Semi-Condensed';fill:#ffffff;fill-opacity:1;stroke-width:0.195983" />
      </g>
      <path
         d="m 29.864864,91.956946 q 0,1.730567 -0.275125,3.02315 -0.267481,1.281902 -0.886511,2.136503 -0.58846,0.81187 -1.375621,1.185759 -0.78716,0.373887 -1.83416,0.373887 -1.069927,0 -1.86473,-0.395253 -0.794803,-0.395253 -1.337409,-1.164393 -0.619029,-0.875966 -0.894153,-2.115138 -0.267482,-1.239171 -0.267482,-3.044515 v -9.518119 h 1.513183 v 9.624943 q 0,1.292585 0.122277,2.04036 0.12992,0.747777 0.42797,1.356679 0.336263,0.694363 0.909439,1.046886 0.580817,0.352523 1.390905,0.352523 0.81773,0 1.390905,-0.34184 0.573175,-0.352523 0.91708,-1.057569 0.298052,-0.608902 0.420329,-1.388726 0.12992,-0.790507 0.12992,-1.954901 v -9.678355 h 1.513183 z"
         style="font-size:18.5046px;line-height:1.25;font-family:sans-serif;fill:#ffffff;fill-opacity:1;stroke-width:0.216851"
         id="path1139" />
      <path
         d="m 39.776974,98.345088 h -1.43676 V 91.55101 q 0,-0.822554 -0.06878,-1.538282 -0.06878,-0.726411 -0.252197,-1.132346 -0.191058,-0.448666 -0.550248,-0.662316 -0.35919,-0.224332 -0.932365,-0.224332 -0.588459,0 -1.230416,0.405935 -0.641956,0.405935 -1.230417,1.036204 v 8.909215 H 32.639032 V 86.412721 h 1.436758 v 1.324632 q 0.672526,-0.779824 1.390906,-1.217806 0.718379,-0.437982 1.474971,-0.437982 1.383262,0 2.109285,1.164392 0.726022,1.164394 0.726022,3.35431 z"
         style="font-size:18.5046px;line-height:1.25;font-family:sans-serif;fill:#ffffff;fill-opacity:1;stroke-width:0.216851"
         id="path1141" />
      <path
         d="m 44.087252,84.415092 h -1.620176 v -2.083089 h 1.620176 z m -0.09171,13.929996 H 42.558785 V 86.412721 h 1.436758 z"
         style="font-size:18.5046px;line-height:1.25;font-family:sans-serif;fill:#ffffff;fill-opacity:1;stroke-width:0.216851"
         id="path1143" />
      <path
         d="M 54.22099,86.412721 50.766654,98.345088 H 49.322252 L 45.890843,86.412721 h 1.559037 l 2.644248,9.496754 2.621321,-9.496754 z"
         style="font-size:18.5046px;line-height:1.25;font-family:sans-serif;fill:#ffffff;fill-opacity:1;stroke-width:0.216851"
         id="path1145" />
      <path
         d="m 63.109026,92.587213 h -6.289642 q 0,1.1003 0.236912,1.922852 0.236912,0.811871 0.649598,1.335314 0.397402,0.512761 0.940008,0.769142 0.550248,0.256379 1.207489,0.256379 0.871227,0 1.750096,-0.480713 0.88651,-0.491394 1.260985,-0.961425 h 0.07642 v 2.189915 q -0.726022,0.4273 -1.482613,0.715728 -0.756591,0.288427 -1.589605,0.288427 -2.12457,0 -3.316775,-1.602376 -1.192204,-1.613059 -1.192204,-4.572116 0,-2.927008 1.138708,-4.646892 1.146351,-1.719883 3.01108,-1.719883 1.727169,0 2.659534,1.410091 0.940007,1.410091 0.940007,4.005941 z m -1.398547,-1.538281 q -0.0076,-1.581012 -0.573175,-2.446295 -0.557891,-0.865284 -1.704241,-0.865284 -1.153993,0 -1.841803,0.950744 -0.680168,0.950743 -0.771876,2.360835 z"
         style="font-size:18.5046px;line-height:1.25;font-family:sans-serif;fill:#ffffff;fill-opacity:1;stroke-width:0.216851"
         id="path1147" />
      <path
         d="m 70.613799,88.602637 h -0.07643 q -0.320978,-0.10682 -0.62667,-0.149556 -0.298052,-0.05342 -0.710738,-0.05342 -0.664883,0 -1.283913,0.416619 -0.619029,0.405935 -1.192204,1.057568 V 98.34508 H 65.287091 V 86.412721 h 1.436759 v 1.762616 q 0.855941,-0.961427 1.505541,-1.356679 0.65724,-0.405937 1.337408,-0.405937 0.374474,0 0.542606,0.03205 0.168131,0.02136 0.504394,0.09614 z"
         style="font-size:18.5046px;line-height:1.25;font-family:sans-serif;fill:#ffffff;fill-opacity:1;stroke-width:0.216851"
         id="path1149" />
      <path
         d="m 78.065078,94.905319 q 0,1.634424 -0.970577,2.68131 -0.962933,1.046887 -2.636606,1.046887 -0.94765,0 -1.742452,-0.309793 -0.787161,-0.320476 -1.322124,-0.694364 V 95.37535 h 0.07642 q 0.680168,0.715728 1.513183,1.143028 0.833015,0.416618 1.597248,0.416618 0.94765,0 1.482614,-0.427301 0.534963,-0.4273 0.534963,-1.345996 0,-0.705046 -0.290408,-1.068251 -0.290409,-0.363206 -1.115782,-0.619585 -0.305693,-0.09614 -0.802445,-0.224334 -0.48911,-0.12819 -0.894153,-0.277746 -1.123423,-0.416617 -1.597248,-1.217806 -0.466183,-0.81187 -0.466183,-1.986946 0,-0.737093 0.213986,-1.388727 0.221627,-0.651633 0.664883,-1.164394 0.42797,-0.502078 1.085212,-0.790506 0.664883,-0.29911 1.482613,-0.29911 0.764233,0 1.543752,0.267063 0.78716,0.25638 1.306839,0.630268 v 2.147184 h -0.07643 q -0.550247,-0.566172 -1.337409,-0.950743 -0.78716,-0.395252 -1.543751,-0.395252 -0.787161,0 -1.329767,0.4273 -0.542605,0.416617 -0.542605,1.249853 0,0.737094 0.32862,1.110982 0.320978,0.373888 1.039358,0.608903 0.397401,0.12819 0.88651,0.25638 0.496752,0.128191 0.825373,0.235015 1.001146,0.320476 1.543751,1.1003 0.542606,0.790505 0.542606,2.093772 z"
         style="font-size:18.5046px;line-height:1.25;font-family:sans-serif;fill:#ffffff;fill-opacity:1;stroke-width:0.216851"
         id="path1151" />
      <path
         d="m 81.664621,84.415092 h -1.620176 v -2.083089 h 1.620176 z m -0.09171,13.929996 H 80.136154 V 86.412721 h 1.436759 z"
         style="font-size:18.5046px;line-height:1.25;font-family:sans-serif;fill:#ffffff;fill-opacity:1;stroke-width:0.216851"
         id="path1153" />
      <path
         d="m 88.84841,98.238262 q -0.405036,0.149555 -0.886509,0.245698 -0.473827,0.09614 -0.848295,0.09614 -1.306838,0 -1.98701,-0.98279 -0.680167,-0.982791 -0.680167,-3.151342 v -6.345412 h -0.970577 v -1.687837 h 0.970577 v -3.429085 h 1.436758 v 3.429085 h 2.965223 v 1.687837 h -2.965223 v 5.437399 q 0,0.940062 0.03053,1.474187 0.03053,0.523443 0.213984,0.982791 0.168131,0.427301 0.458542,0.630268 0.298049,0.192285 0.901793,0.192285 0.351556,0 0.733671,-0.138873 0.382114,-0.149555 0.550246,-0.245697 h 0.07646 z"
         style="font-size:18.5046px;line-height:1.25;font-family:sans-serif;fill:#ffffff;fill-opacity:1;stroke-width:0.216851"
         id="path1155" />
      <path
         d="m 97.889297,86.412721 -4.982801,16.333559 h -1.536105 l 1.589603,-4.978049 -3.400844,-11.35551 h 1.559044 l 2.621313,8.845121 2.644253,-8.845121 z"
         style="font-size:18.5046px;line-height:1.25;font-family:sans-serif;fill:#ffffff;fill-opacity:1;stroke-width:0.216851"
         id="path1157" />
      <path
         d="m 112.5473,92.384246 q 0,2.916325 -1.06993,4.604162 -1.06992,1.687837 -2.86587,1.687837 -1.81123,0 -2.88116,-1.687837 -1.06229,-1.687837 -1.06229,-4.604162 0,-2.916326 1.06229,-4.604163 1.06993,-1.698518 2.88116,-1.698518 1.79595,0 2.86587,1.698518 1.06993,1.687837 1.06993,4.604163 z m -1.48261,0 q 0,-2.318105 -0.6496,-3.439769 -0.6496,-1.132347 -1.80359,-1.132347 -1.16928,0 -1.81888,1.132347 -0.64195,1.121664 -0.64195,3.439769 0,2.243327 0.6496,3.407721 0.64959,1.153712 1.81123,1.153712 1.14635,0 1.79595,-1.143029 0.65724,-1.153712 0.65724,-3.418404 z"
         style="font-size:18.5046px;line-height:1.25;font-family:sans-serif;fill:#ffffff;fill-opacity:1;stroke-width:0.216851"
         id="path1159" />
      <path
         d="m 119.36427,83.667316 h -0.0765 q -0.23692,-0.09614 -0.61903,-0.192285 -0.38212,-0.106831 -0.67253,-0.106831 -0.92472,0 -1.34505,0.576856 -0.41268,0.566172 -0.41268,2.061724 v 0.405935 h 2.59075 v 1.687837 h -2.5449 v 10.24453 h -1.43676 V 88.100552 H 113.877 v -1.687837 h 0.97057 v -0.395252 q 0,-2.12582 0.7566,-3.258166 0.75659,-1.143028 2.1857,-1.143028 0.48147,0 0.86358,0.06409 0.38976,0.06409 0.71074,0.149556 z"
         style="font-size:18.5046px;line-height:1.25;font-family:sans-serif;fill:#ffffff;fill-opacity:1;stroke-width:0.216851"
         id="path1161" />
      <path
         d="m 134.86292,98.345088 h -1.61253 l -1.11578,-4.433243 h -4.92167 l -1.11577,4.433243 h -1.53612 l 4.14215,-15.906261 h 2.01758 z m -3.19449,-6.249269 -1.99465,-7.808917 -2.0023,7.808917 z"
         style="font-size:18.5046px;line-height:1.25;font-family:sans-serif;fill:#ffffff;fill-opacity:1;stroke-width:0.216851"
         id="path1163" />
      <path
         d="m 143.98787,92.23469 q 0,1.452823 -0.29805,2.659946 -0.29805,1.196442 -0.84066,2.029678 -0.50439,0.790505 -1.1922,1.228488 -0.68017,0.4273 -1.4444,0.4273 -0.66488,0 -1.20749,-0.202967 -0.53496,-0.202968 -1.09286,-0.630269 v 4.999414 h -1.43675 V 86.412721 h 1.43675 v 1.249855 q 0.57318,-0.672998 1.28392,-1.121664 0.71838,-0.459347 1.52847,-0.459347 1.54375,0 2.39969,1.634423 0.86358,1.623742 0.86358,4.518702 z m -1.48261,0.05342 q 0,-2.157868 -0.52732,-3.226119 -0.52732,-1.068251 -1.62017,-1.068251 -0.61903,0 -1.24571,0.373888 -0.62667,0.373887 -1.19985,0.982791 v 6.76203 q 0.61139,0.38457 1.04701,0.523443 0.44325,0.138872 1.00114,0.138872 1.19985,0 1.87238,-1.132346 0.67252,-1.132346 0.67252,-3.354308 z"
         style="font-size:18.5046px;line-height:1.25;font-family:sans-serif;fill:#ffffff;fill-opacity:1;stroke-width:0.216851"
         id="path1165" />
      <path
         d="m 153.7395,92.23469 q 0,1.452823 -0.29805,2.659946 -0.29805,1.196442 -0.84066,2.029678 -0.5044,0.790505 -1.19221,1.228488 -0.68017,0.4273 -1.4444,0.4273 -0.66489,0 -1.20749,-0.202967 -0.53496,-0.202968 -1.09285,-0.630269 v 4.999414 h -1.43676 V 86.412721 h 1.43676 v 1.249855 q 0.57318,-0.672998 1.28391,-1.121664 0.71838,-0.459347 1.52846,-0.459347 1.54376,0 2.39971,1.634423 0.86358,1.623742 0.86358,4.518702 z m -1.48262,0.05342 q 0,-2.157868 -0.52732,-3.226119 -0.52732,-1.068251 -1.62018,-1.068251 -0.61902,0 -1.2457,0.373888 -0.62666,0.373887 -1.19984,0.982791 v 6.76203 q 0.61138,0.38457 1.047,0.523443 0.44325,0.138872 1.00115,0.138872 1.19984,0 1.87236,-1.132346 0.67253,-1.132346 0.67253,-3.354308 z"
         style="font-size:18.5046px;line-height:1.25;font-family:sans-serif;fill:#ffffff;fill-opacity:1;stroke-width:0.216851"
         id="path1167" />
      <path
         d="m 157.43075,98.345088 h -1.43676 V 81.723099 h 1.43676 z"
         style="font-size:18.5046px;line-height:1.25;font-family:sans-serif;fill:#ffffff;fill-opacity:1;stroke-width:0.216851"
         id="path1169" />
      <path
         d="m 161.81745,84.415092 h -1.62018 v -2.083089 h 1.62018 z m -0.0917,13.929996 H 160.289 V 86.412721 h 1.43675 z"
         style="font-size:18.5046px;line-height:1.25;font-family:sans-serif;fill:#ffffff;fill-opacity:1;stroke-width:0.216851"
         id="path1171" />
      <path
         d="m 171.71426,92.587213 h -6.28963 q 0,1.1003 0.23691,1.922852 0.23691,0.811871 0.64959,1.335314 0.3974,0.512761 0.94001,0.769142 0.55025,0.256379 1.20749,0.256379 0.87123,0 1.7501,-0.480713 0.88651,-0.491394 1.26098,-0.961425 h 0.0765 v 2.189915 q -0.72601,0.4273 -1.4826,0.715728 -0.75659,0.288427 -1.58961,0.288427 -2.12457,0 -3.31677,-1.602376 -1.19221,-1.613059 -1.19221,-4.572116 0,-2.927008 1.13871,-4.646892 1.14635,-1.719883 3.01108,-1.719883 1.72717,0 2.65953,1.410091 0.94001,1.410091 0.94001,4.005941 z m -1.39854,-1.538281 q -0.008,-1.581012 -0.57317,-2.446295 -0.5579,-0.865284 -1.70425,-0.865284 -1.15399,0 -1.8418,0.950744 -0.68017,0.950743 -0.77187,2.360835 z"
         style="font-size:18.5046px;line-height:1.25;font-family:sans-serif;fill:#ffffff;fill-opacity:1;stroke-width:0.216851"
         id="path1173" />
      <path
         d="m 180.81629,98.345088 h -1.43676 v -1.249854 q -0.61903,0.747775 -1.29155,1.164393 -0.67253,0.416618 -1.45969,0.416618 -1.52847,0 -2.43026,-1.645107 -0.89415,-1.645106 -0.89415,-4.561432 0,-1.516917 0.30569,-2.702675 0.31333,-1.185759 0.84066,-2.018995 0.51968,-0.811872 1.20749,-1.239172 0.69545,-0.427299 1.43676,-0.427299 0.67253,0 1.1922,0.202967 0.51968,0.192285 1.09285,0.608903 v -5.170336 h 1.43676 z m -1.43676,-2.937691 v -6.84749 q -0.58081,-0.363206 -1.03936,-0.502078 -0.45853,-0.138873 -1.00114,-0.138873 -1.20749,0 -1.88001,1.175076 -0.67253,1.175077 -0.67253,3.332943 0,2.125821 0.51968,3.236802 0.51968,1.100299 1.66603,1.100299 0.61138,0 1.23806,-0.373889 0.62667,-0.38457 1.16927,-0.98279 z"
         style="font-size:18.5046px;line-height:1.25;font-family:sans-serif;fill:#ffffff;fill-opacity:1;stroke-width:0.216851"
         id="path1175" />
      <path
         d="m 197.53009,93.805019 q 0,0.92938 -0.31334,1.837393 -0.30569,0.908013 -0.86358,1.538282 -0.61139,0.68368 -1.42912,1.06825 -0.81009,0.384572 -1.95644,0.384572 -1.23041,0 -2.21627,-0.320476 -0.97822,-0.320475 -1.99466,-0.950744 v -2.649262 h 0.107 q 0.86358,1.004156 1.99464,1.548964 1.13107,0.544808 2.12458,0.544808 1.40619,0 2.18571,-0.737093 0.78716,-0.737094 0.78716,-1.965583 0,-1.057568 -0.37448,-1.559647 -0.36683,-0.502078 -1.12342,-0.779822 -0.57318,-0.213651 -1.2457,-0.352524 -0.66488,-0.138872 -1.41384,-0.352523 -1.51318,-0.448665 -2.24684,-1.527598 -0.72603,-1.089617 -0.72603,-2.830866 0,-1.997629 1.20749,-3.268849 1.20749,-1.281901 3.06458,-1.281901 1.19984,0 2.20099,0.320476 1.00115,0.320474 1.77302,0.790505 v 2.499708 h -0.10698 q -0.64961,-0.769141 -1.71189,-1.271219 -1.05465,-0.512761 -2.16278,-0.512761 -1.21513,0 -1.95644,0.705046 -0.73366,0.705045 -0.73366,1.816027 0,0.993474 0.36683,1.559647 0.36683,0.566172 1.29155,0.865283 0.48912,0.149555 1.39091,0.363205 0.90179,0.21365 1.52847,0.437984 1.26862,0.47003 1.91058,1.420774 0.64196,0.950744 0.64196,2.659944 z"
         style="font-size:18.5046px;line-height:1.25;font-family:sans-serif;fill:#ffffff;fill-opacity:1;stroke-width:0.216851"
         id="path1177" />
      <path
         d="m 206.15828,97.597311 q -0.71838,0.480713 -1.36797,0.747777 -0.64196,0.267062 -1.36798,0.267062 -0.92473,0 -1.6966,-0.373888 -0.77188,-0.38457 -1.32212,-1.153712 -0.5579,-0.76914 -0.86359,-1.944216 -0.3057,-1.175077 -0.3057,-2.745406 0,-2.927008 1.14636,-4.59348 1.15399,-1.666471 3.04165,-1.666471 0.73366,0 1.43675,0.288427 0.71074,0.288428 1.2992,0.705047 v 2.232643 h -0.0765 q -0.65724,-0.715728 -1.36034,-1.100298 -0.69545,-0.38457 -1.36033,-0.38457 -1.22278,0 -1.93351,1.153712 -0.7031,1.143028 -0.7031,3.36499 0,2.157868 0.68781,3.322262 0.69545,1.15371 1.9488,1.15371 0.43561,0 0.88651,-0.160237 0.45089,-0.160238 0.81009,-0.416618 0.31333,-0.224332 0.58846,-0.470031 0.27512,-0.256379 0.43561,-0.437982 h 0.0765 z"
         style="font-size:18.5046px;line-height:1.25;font-family:sans-serif;fill:#ffffff;fill-opacity:1;stroke-width:0.216851"
         id="path1179" />
      <path
         d="m 209.54383,84.415092 h -1.62017 v -2.083089 h 1.62017 z m -0.0917,13.929996 h -1.43676 V 86.412721 h 1.43676 z"
         style="font-size:18.5046px;line-height:1.25;font-family:sans-serif;fill:#ffffff;fill-opacity:1;stroke-width:0.216851"
         id="path1181" />
      <path
         d="m 219.44066,92.587213 h -6.28964 q 0,1.1003 0.23692,1.922852 0.23691,0.811871 0.64959,1.335314 0.39741,0.512761 0.94001,0.769142 0.55024,0.256379 1.20749,0.256379 0.87122,0 1.75009,-0.480713 0.88651,-0.491394 1.26099,-0.961425 h 0.0765 v 2.189915 q -0.72601,0.4273 -1.48261,0.715728 -0.75659,0.288427 -1.58961,0.288427 -2.12456,0 -3.31677,-1.602376 -1.1922,-1.613059 -1.1922,-4.572116 0,-2.927008 1.13871,-4.646892 1.14635,-1.719883 3.01108,-1.719883 1.72717,0 2.65953,1.410091 0.94,1.410091 0.94,4.005941 z m -1.39854,-1.538281 q -0.008,-1.581012 -0.57318,-2.446295 -0.55789,-0.865284 -1.70424,-0.865284 -1.15399,0 -1.8418,0.950744 -0.68017,0.950743 -0.77188,2.360835 z"
         style="font-size:18.5046px;line-height:1.25;font-family:sans-serif;fill:#ffffff;fill-opacity:1;stroke-width:0.216851"
         id="path1183" />
      <path
         d="M 228.75667,98.345088 H 227.3199 V 91.55101 q 0,-0.822554 -0.0688,-1.538282 -0.0688,-0.726411 -0.2522,-1.132346 -0.19105,-0.448666 -0.55025,-0.662316 -0.35918,-0.224332 -0.93236,-0.224332 -0.58846,0 -1.23042,0.405935 -0.64195,0.405935 -1.23041,1.036204 v 8.909215 H 221.6187 V 86.412721 h 1.43676 v 1.324632 q 0.67252,-0.779824 1.3909,-1.217806 0.71839,-0.437982 1.47498,-0.437982 1.38326,0 2.10928,1.164392 0.72602,1.164394 0.72602,3.35431 z"
         style="font-size:18.5046px;line-height:1.25;font-family:sans-serif;fill:#ffffff;fill-opacity:1;stroke-width:0.216851"
         id="path1185" />
      <path
         d="m 237.83577,97.597311 q -0.71839,0.480713 -1.36798,0.747777 -0.64196,0.267062 -1.36799,0.267062 -0.92471,0 -1.6966,-0.373888 -0.77187,-0.38457 -1.32212,-1.153712 -0.55789,-0.76914 -0.86358,-1.944216 -0.30569,-1.175077 -0.30569,-2.745406 0,-2.927008 1.14635,-4.59348 1.15399,-1.666471 3.04164,-1.666471 0.73367,0 1.43677,0.288427 0.71074,0.288428 1.2992,0.705047 v 2.232643 h -0.0765 q -0.65725,-0.715728 -1.36034,-1.100298 -0.69545,-0.38457 -1.36034,-0.38457 -1.22277,0 -1.93351,1.153712 -0.70309,1.143028 -0.70309,3.36499 0,2.157868 0.68781,3.322262 0.69545,1.15371 1.94879,1.15371 0.43562,0 0.88651,-0.160237 0.4509,-0.160238 0.81009,-0.416618 0.31334,-0.224332 0.58846,-0.470031 0.27513,-0.256379 0.43562,-0.437982 h 0.0765 z"
         style="font-size:18.5046px;line-height:1.25;font-family:sans-serif;fill:#ffffff;fill-opacity:1;stroke-width:0.216851"
         id="path1187" />
      <path
         d="m 246.82316,92.587213 h -6.28964 q 0,1.1003 0.23691,1.922852 0.23691,0.811871 0.6496,1.335314 0.3974,0.512761 0.94001,0.769142 0.55025,0.256379 1.20749,0.256379 0.87123,0 1.75009,-0.480713 0.88652,-0.491394 1.26098,-0.961425 h 0.0765 v 2.189915 q -0.72603,0.4273 -1.48262,0.715728 -0.75659,0.288427 -1.5896,0.288427 -2.12458,0 -3.31678,-1.602376 -1.1922,-1.613059 -1.1922,-4.572116 0,-2.927008 1.1387,-4.646892 1.14635,-1.719883 3.01109,-1.719883 1.72716,0 2.65953,1.410091 0.94001,1.410091 0.94001,4.005941 z m -1.39855,-1.538281 q -0.008,-1.581012 -0.57317,-2.446295 -0.55789,-0.865284 -1.70424,-0.865284 -1.154,0 -1.84181,0.950744 -0.68016,0.950743 -0.77187,2.360835 z"
         style="font-size:18.5046px;line-height:1.25;font-family:sans-serif;fill:#ffffff;fill-opacity:1;stroke-width:0.216851"
         id="path1189" />
      <path
         d="m 255.0998,94.905319 q 0,1.634424 -0.97059,2.68131 -0.96293,1.046887 -2.6366,1.046887 -0.94765,0 -1.74245,-0.309793 -0.78716,-0.320476 -1.32213,-0.694364 V 95.37535 h 0.0765 q 0.68017,0.715728 1.51318,1.143028 0.83302,0.416618 1.59725,0.416618 0.94765,0 1.48261,-0.427301 0.53497,-0.4273 0.53497,-1.345996 0,-0.705046 -0.29041,-1.068251 -0.29042,-0.363206 -1.11578,-0.619585 -0.3057,-0.09614 -0.80245,-0.224334 -0.4891,-0.12819 -0.89415,-0.277746 -1.12342,-0.416617 -1.59725,-1.217806 -0.46618,-0.81187 -0.46618,-1.986946 0,-0.737093 0.21398,-1.388727 0.22163,-0.651633 0.66488,-1.164394 0.42798,-0.502078 1.08522,-0.790506 0.66488,-0.29911 1.48261,-0.29911 0.76424,0 1.54375,0.267063 0.78717,0.25638 1.30685,0.630268 v 2.147184 h -0.0765 q -0.55024,-0.566172 -1.3374,-0.950743 -0.78716,-0.395252 -1.54375,-0.395252 -0.78716,0 -1.32977,0.4273 -0.54261,0.416617 -0.54261,1.249853 0,0.737094 0.32863,1.110982 0.32097,0.373888 1.03935,0.608903 0.3974,0.12819 0.88651,0.25638 0.49675,0.128191 0.82537,0.235015 1.00115,0.320476 1.54376,1.1003 0.5426,0.790505 0.5426,2.093772 z"
         style="font-size:18.5046px;line-height:1.25;font-family:sans-serif;fill:#ffffff;fill-opacity:1;stroke-width:0.216851"
         id="path1191" />
    </g>
  </g>
</svg>
