<?xml version="1.0" encoding="UTF-8" standalone="no"?>
<svg
   xmlns:dc="http://purl.org/dc/elements/1.1/"
   xmlns:cc="http://creativecommons.org/ns#"
   xmlns:rdf="http://www.w3.org/1999/02/22-rdf-syntax-ns#"
   xmlns:svg="http://www.w3.org/2000/svg"
   xmlns="http://www.w3.org/2000/svg"
   xmlns:sodipodi="http://sodipodi.sourceforge.net/DTD/sodipodi-0.dtd"
   xmlns:inkscape="http://www.inkscape.org/namespaces/inkscape"
   width="327mm"
   height="79mm"
   viewBox="0 0 327 79"
   version="1.1"
   id="svg973"
   inkscape:version="1.0.1 (3bc2e813f5, 2020-09-07)"
   sodipodi:docname="Hochschule_Dreieck.svg">
  <defs
     id="defs967" />
  <sodipodi:namedview
     id="base"
     pagecolor="#ffffff"
     bordercolor="#666666"
     borderopacity="1.0"
     inkscape:pageopacity="0.0"
     inkscape:pageshadow="2"
     inkscape:zoom="0.67703411"
     inkscape:cx="390.89569"
     inkscape:cy="312.07527"
     inkscape:document-units="mm"
     inkscape:current-layer="layer1"
     inkscape:document-rotation="0"
     showgrid="false"
     inkscape:window-width="1920"
     inkscape:window-height="1137"
     inkscape:window-x="-8"
     inkscape:window-y="-8"
     inkscape:window-maximized="1"
     inkscape:pagecheckerboard="true" />
  <metadata
     id="metadata970">
    <rdf:RDF>
      <cc:Work
         rdf:about="">
        <dc:format>image/svg+xml</dc:format>
        <dc:type
           rdf:resource="http://purl.org/dc/dcmitype/StillImage" />
        <dc:title></dc:title>
      </cc:Work>
    </rdf:RDF>
  </metadata>
  <g
     inkscape:label="Ebene 1"
     inkscape:groupmode="layer"
     id="layer1">
    <path
       sodipodi:type="star"
       style="fill:#34495b;fill-opacity:1;stroke-width:6.042;stroke-linecap:round;stroke-linejoin:round;stroke-dashoffset:19.7216;paint-order:stroke markers fill"
       id="path853"
       sodipodi:sides="3"
       sodipodi:cx="44.160133"
       sodipodi:cy="46.114124"
       sodipodi:r1="68.026855"
       sodipodi:r2="34.013428"
       sodipodi:arg1="0.52359878"
       sodipodi:arg2="1.5707963"
       inkscape:flatsided="true"
       inkscape:rounded="0"
       inkscape:randomized="0"
       d="m 103.07312,80.127552 -117.825972,0 58.912986,-102.040283 z"
       inkscape:transform-center-x="-1.245629e-06"
       inkscape:transform-center-y="-12.011541"
       transform="matrix(1,0,0,0.97319114,0,2.1481282)" />
    <path
       id="path846-32"
       style="fill:#ffffff;stroke-width:0.223733;fill-opacity:1"
       d="m 148.47415,36.896934 -1.28631,0.0672 -1.28634,0.0672 -0.0592,7.886654 -0.0587,7.886231 h 1.34483 c 1.21522,0 1.34536,-0.0448 1.34536,-0.467116 0,-0.449703 0.0254,-0.445518 0.68857,0.112008 0.51607,0.434234 0.93854,0.578951 1.68876,0.578951 1.39432,0 2.18853,-0.479627 2.7649,-1.670365 0.43817,-0.905069 0.488,-1.353546 0.47194,-4.261014 -0.0211,-3.506495 -0.23796,-4.464016 -1.16576,-5.113843 -0.74226,-0.519947 -2.58528,-0.475992 -3.50286,0.08369 -0.40279,0.245561 -0.78035,0.446533 -0.83896,0.446533 -0.0583,0 -0.10652,-1.263436 -0.10652,-2.807723 z m 120.14438,0 -1.28676,0.0672 -1.28631,0.0672 -0.0583,7.886654 -0.0591,7.886231 h 1.34532 1.34534 v -7.953518 z m -52.80075,4.66e-4 v 7.953475 7.953518 h 1.34225 1.34226 v -4.041658 c 0,-4.778763 0.17074,-5.343088 1.61451,-5.351542 0.37404,-0.0014 0.69627,0.163139 0.83887,0.4295 0.13648,0.254859 0.23161,2.185789 0.23161,4.698332 v 4.265368 h 1.34228 1.34267 v -4.552857 c 0,-2.755313 -0.098,-4.834131 -0.2481,-5.264601 -0.49103,-1.408574 -2.78853,-1.847203 -4.30074,-0.821004 l -0.80743,0.548349 -0.063,-2.841366 -0.0625,-2.841366 -1.28638,-0.0672 z m 29.08492,0 v 7.953475 7.953518 h 1.34268 1.34226 v -4.03815 c 0,-4.742077 0.16702,-5.358558 1.45195,-5.358558 0.53173,0 0.84094,0.133972 1.00101,0.433008 0.13647,0.254859 0.23202,2.185789 0.23202,4.698332 v 4.265368 h 1.34231 1.34222 v -4.552857 c 0,-4.984763 -0.14371,-5.794101 -1.12159,-6.299721 -1.18809,-0.614367 -2.99255,-0.432837 -3.72138,0.374471 -0.40659,0.450463 -0.41672,0.403633 -0.52649,-2.41753 l -0.11194,-2.877207 -1.28634,-0.0672 z m -58.62989,0.0014 -1.39205,0.06635 -1.39252,0.06635 -0.0582,7.886651 -0.0592,7.886233 h 1.45152 1.45152 l 0.0618,-3.523442 0.0617,-3.523867 2.06926,-0.06425 2.06973,-0.06467 v 3.588108 3.588067 h 1.45723 1.45675 l -0.0588,-7.886189 -0.0582,-7.886653 h -1.34268 -1.3423 l -0.11194,3.244237 -0.11194,3.243775 h -2.01381 -2.01343 l -0.0622,-3.310637 z m -45.93566,0.0042 -1.88929,0.06383 -1.88889,0.06425 -0.65058,2.348976 c -0.35799,1.292049 -1.11103,4.010677 -1.67345,6.041014 -0.88757,3.204045 -1.56998,5.587297 -2.00245,6.991393 v 4.22e-4 c -0.10649,0.345307 0.052,0.391376 1.34227,0.391376 h 1.46326 l 0.32207,-1.17489 c 0.17709,-0.646024 0.38377,-1.451261 0.45831,-1.789679 l 0.13524,-0.615213 h 2.41627 2.41579 l 0.43259,1.733762 0.43213,1.734186 1.52835,0.06635 c 1.38228,0.06043 1.51774,0.02959 1.4109,-0.335587 -0.0651,-0.221047 -1.04861,-3.803873 -2.18558,-7.961379 z m -56.744946,0.0085 v 7.94739 7.947389 h 4.263127 4.263168 l -0.06806,-1.062633 -0.06845,-1.062634 -2.740478,-0.06298 -2.740861,-0.06298 v -2.45426 -2.453792 h 2.461238 2.460805 V 44.528295 43.409744 H 88.961888 86.50065 v -2.125302 -2.125689 h 2.697156 2.697197 l -0.06806,-1.062633 -0.06845,-1.062634 -4.082695,-0.06128 z m 207.399536,0.0085 v 6.498492 6.498073 l -0.54921,0.549236 c -1.25101,1.250967 -2.57682,0.125108 -2.58185,-2.191622 -8.9e-4,-0.60938 -0.0176,-0.615213 -1.48426,-0.615213 h -1.4834 l 0.15431,1.398599 c 0.19443,1.766012 0.70294,2.820318 1.6708,3.464906 0.64402,0.428992 1.05734,0.506381 2.70721,0.506381 2.32712,0 3.17355,-0.428107 3.97132,-2.007262 0.48799,-0.965805 0.50333,-1.197925 0.50333,-7.548912 v -6.552721 h -1.45408 z m -134.72836,0.112007 -0.0338,7.886655 -0.0338,7.886653 1.28632,-4.22e-4 c 1.15555,-4.2e-5 1.28679,-0.04733 1.28679,-0.467117 0,-0.449702 0.0255,-0.445517 0.68815,0.112008 0.51602,0.434233 0.93901,0.578949 1.68922,0.578949 2.34301,0 3.20484,-1.306292 3.38489,-5.13134 0.14072,-2.987012 -0.19907,-4.777073 -1.07138,-5.649553 -0.53279,-0.532882 -0.81207,-0.62895 -1.82104,-0.628317 -0.7893,5.5e-4 -1.43494,0.149191 -1.91198,0.440024 l -0.72055,0.439094 -0.063,-2.733463 -0.0625,-2.732998 h -1.30726 z m -33.0409,1.901557 c -0.10652,0 -0.71061,0.21513 -1.34227,0.477554 -1.13393,0.471258 -1.14868,0.489517 -1.14868,1.454136 0,0.967326 -0.009,0.976963 -0.78301,0.976963 -0.76445,0 -0.78296,0.02113 -0.78296,0.894838 0,0.873623 0.0169,0.894842 0.78296,0.894842 h 0.78301 v 3.793009 c 0,4.196306 0.1437,4.817097 1.22514,5.296512 0.37193,0.164833 1.23042,0.276416 1.90722,0.247676 l 1.23043,-0.0524 0.0684,-0.950758 c 0.0659,-0.912929 0.0436,-0.950799 -0.57024,-0.950799 -1.10063,0 -1.17624,-0.254436 -1.17624,-3.959916 v -3.42331 h 0.89484 0.89484 v -0.894923 -0.894839 h -0.89484 -0.89484 V 40.38801 c 0,-0.799827 -0.0875,-1.454515 -0.194,-1.454515 z m 15.20834,0.965169 c 0.0169,-0.0042 0.0338,0.0085 0.0427,0.04227 0.0736,0.245982 0.34192,1.353756 0.59597,2.461232 0.54037,2.354935 0.9129,3.914228 1.02941,4.306872 0.0618,0.207522 -0.37911,0.279795 -1.70404,0.279795 -1.73934,0 -1.78394,-0.01272 -1.66821,-0.503379 0.0655,-0.276838 0.45511,-1.963304 0.86597,-3.747575 0.4049,-1.75815 0.71205,-2.79276 0.83808,-2.838322 z m -39.177605,1.661236 -0.81796,0.132718 c -0.449867,0.07311 -1.104183,0.407014 -1.454093,0.742347 l -0.636643,0.609465 v -0.601266 c 0,-0.579584 -0.04396,-0.601223 -1.230388,-0.601223 h -1.230427 v 5.481297 5.481337 h 1.342265 1.342727 V 49.35136 c 0,-4.439119 0.300924,-5.248793 1.957429,-5.265023 l 0.72709,-0.0042 v -1.259716 z m 140.076845,0.04227 c -0.78375,-0.0042 -1.56161,0.09679 -2.05446,0.306423 -1.76901,0.752914 -2.32459,2.125519 -2.32713,5.751751 -0.002,2.959668 0.34995,3.995335 1.65338,4.863548 h 4.2e-4 c 0.61137,0.407016 1.07109,0.506169 2.34897,0.505958 2.56682,-5.91e-4 3.87371,-0.954519 4.10367,-2.994747 l 0.11617,-1.032497 h -1.21995 -1.22032 l -0.3191,1.063055 c -0.29882,0.995221 -0.3715,1.066986 -1.14476,1.131229 -0.69334,0.05748 -0.89023,-0.02959 -1.23041,-0.549659 -0.33433,-0.510394 -0.40491,-1.089261 -0.40491,-3.322429 0,-3.222261 0.27598,-3.915367 1.5581,-3.915367 0.86007,0 1.04573,0.201604 1.22866,1.33482 0.1273,0.788374 0.13154,0.790825 1.41128,0.85773 l 1.28326,0.0672 -0.004,-0.738417 c -0.009,-1.261618 -0.76905,-2.612076 -1.68697,-2.995634 -0.51763,-0.216398 -1.30743,-0.327978 -2.09121,-0.333051 z m -133.20215,0.0038 c -0.7407,0.0042 -1.47155,0.202875 -1.91157,0.573245 -0.80359,0.676159 -0.93593,0.691966 -0.93593,0.112008 0,-0.397716 -0.14918,-0.44742 -1.34226,-0.44742 h -1.34272 v 5.481467 5.481337 h 1.45456 1.45414 l 0.003,-4.083161 c 0.003,-4.678426 0.1251,-5.159319 1.33397,-5.275084 1.27088,-0.121718 1.34751,0.163562 1.34751,5.038271 v 4.319974 h 1.34225 1.34227 V 48.25344 c 0,-4.997612 -0.14286,-5.79351 -1.13166,-6.304919 -0.45599,-0.235839 -1.03795,-0.346998 -1.61402,-0.342349 z m 8.56302,0.01272 c -2.55831,0 -3.80353,0.988965 -3.80353,3.020528 0,1.542767 0.427,2.055825 2.69196,3.234181 1.98727,1.033892 2.45645,1.625605 2.09771,2.645635 -0.22781,0.648095 -0.70355,0.839515 -1.55371,0.626117 -0.39012,-0.09806 -0.57067,-0.341502 -0.67815,-0.914493 l -0.14667,-0.78123 h -1.31735 c -1.29958,0 -1.31738,0.0085 -1.31738,0.637908 0,0.867748 0.84942,2.075351 1.79408,2.549948 1.04108,0.523033 2.97781,0.500971 4.18625,-0.04733 1.1942,-0.542095 1.84864,-1.574591 1.84864,-2.916513 0,-1.475861 -0.56677,-2.211362 -2.48309,-3.221966 -2.09242,-1.103504 -2.43764,-1.405743 -2.43764,-2.13748 0,-0.751561 0.377,-1.129033 1.12771,-1.129033 0.58687,0 1.10985,0.690488 1.10985,1.465042 0,0.248519 0.31868,0.32502 1.35228,0.32502 h 1.35274 l -0.15595,-0.839346 c -0.33643,-1.811954 -1.36348,-2.516727 -3.66761,-2.516727 z m 85.46542,0 c -2.29525,0 -3.52915,0.83491 -4.04077,2.734773 -0.13135,0.487741 -0.23373,2.004135 -0.22781,3.36964 0.0124,2.970402 0.48559,4.253786 1.80756,4.914181 1.20126,0.600124 3.74162,0.539517 4.70885,-0.112432 1.4604,-0.984147 1.66733,-1.657391 1.66733,-5.424957 0,-3.183631 -0.0255,-3.39466 -0.53657,-4.108478 -0.69082,-0.968636 -1.68608,-1.372861 -3.3788,-1.372861 z m 29.53275,0 c -2.6395,0 -3.90315,1.113351 -3.74191,3.29669 0.107,1.4445 0.41294,1.79957 2.4735,2.868881 2.07984,1.079201 2.38698,1.364069 2.38698,2.214403 0,0.861323 -0.34744,1.240443 -1.13601,1.240443 -0.68216,0 -1.00009,-0.30262 -1.21425,-1.156123 -0.1356,-0.540445 -0.26162,-0.601181 -1.38246,-0.669822 -0.67809,-0.04227 -1.28307,0.0042 -1.34486,0.106517 -0.2105,0.341504 0.16613,1.672478 0.64577,2.282535 0.2633,0.334741 0.78917,0.743531 1.16878,0.90883 0.85538,0.372356 2.59684,0.40152 3.72924,0.06213 1.38994,-0.416314 2.06119,-1.299867 2.17418,-2.861484 0.12306,-1.700332 -0.31023,-2.352612 -2.23753,-3.368288 -2.23249,-1.176537 -2.63997,-1.520577 -2.63997,-2.227927 0,-0.789093 0.46082,-1.184147 1.27277,-1.091037 0.51878,0.05959 0.66488,0.218935 0.83589,0.911028 l 0.20752,0.839346 h 1.32785 1.32785 l -0.15343,-0.839346 c -0.32967,-1.803331 -1.3786,-2.516726 -3.69993,-2.516726 z m 82.04604,0 c -0.9248,0 -1.4115,0.132718 -2.03042,0.552745 -0.77228,0.524089 -0.81446,0.529838 -0.81446,0.112009 0,-0.389688 -0.15589,-0.44087 -1.34225,-0.44087 h -1.3427 v 5.481339 5.481295 h 1.3287 1.32874 l 0.0694,-4.227751 c 0.0613,-3.786078 0.11405,-4.277158 0.49594,-4.698332 0.48039,-0.530303 1.51749,-0.623708 1.89357,-0.170324 0.36348,0.437782 0.44518,1.40274 0.46184,5.461219 l 0.0177,3.635276 h 1.2981 1.29761 l -0.0673,-4.163085 c -0.038,-2.289763 -0.0673,-4.512239 -0.0673,-4.939118 0,-0.559466 -0.1826,-0.958618 -0.65398,-1.430087 -0.56258,-0.562423 -0.82426,-0.654055 -1.8706,-0.654055 z m -11.36944,0.0014 c -3.19398,-0.0014 -4.4386,2.057641 -4.15963,6.883868 0.13525,2.34179 0.5039,3.207932 1.71067,4.021116 0.60416,0.407014 1.05806,0.504224 2.35987,0.504224 2.37897,0 3.49993,-0.881399 3.84803,-3.026191 l 0.12589,-0.777343 h -1.3716 c -1.32324,0 -1.37142,0.02114 -1.37142,0.574132 0,0.996487 -0.38504,1.439723 -1.25013,1.439723 -0.68617,0 -0.82796,-0.09933 -1.11063,-0.77599 -0.17838,-0.426753 -0.32417,-1.23199 -0.32417,-1.78968 V 47.65979 h 2.68496 2.68453 v -1.621887 c -0.0124,-3.112623 -1.13718,-4.416127 -3.82144,-4.417817 z m 20.03559,0.0085 c -0.86868,0.0025 -1.73938,0.106923 -2.22839,0.311072 -0.8746,0.365595 -1.67226,1.51187 -1.67472,2.40316 -8.9e-4,0.56889 0.0482,0.595644 0.94986,0.521679 0.52291,-0.04311 1.12687,-0.08621 1.34228,-0.09637 0.21554,-0.0085 0.39137,-0.186388 0.39137,-0.391798 0,-0.49687 0.64772,-1.192387 1.11068,-1.192387 0.68435,0 1.1226,0.551097 1.26263,1.587357 l 0.13913,1.028145 -1.50561,0.140327 c -2.85854,0.267116 -3.91495,1.291499 -3.91495,3.799562 -4.6e-4,1.413645 0.38925,2.39496 1.16702,2.939674 0.78602,0.550548 2.38892,0.446871 3.36745,-0.218089 0.80334,-0.545856 0.835,-0.550082 0.835,-0.112008 0,0.405325 0.14159,0.455282 1.28633,0.455282 h 1.28634 l -0.0761,-4.53054 c -0.0862,-5.119548 -0.25401,-5.818403 -1.52096,-6.347775 -0.48187,-0.201184 -1.34843,-0.299662 -2.21707,-0.297125 z m -45.2532,0.0085 c -0.18681,5.5e-4 -0.38503,0.0085 -0.59601,0.02113 -1.77405,0.112855 -2.47519,0.565256 -3.24902,2.096822 -0.50414,0.997798 -0.55884,1.371844 -0.55884,3.791742 4.6e-4,3.081179 0.33897,4.098968 1.65472,4.975339 0.60378,0.401942 1.07409,0.506421 2.28563,0.506421 2.4953,0 3.57779,-0.795642 3.91004,-2.873275 l 0.14883,-0.930259 h -1.23791 -1.23781 l -0.30093,0.950799 c -0.27515,0.86927 -0.37151,0.956717 -1.12511,1.019355 -1.00955,0.08369 -1.20659,-0.213019 -1.42564,-2.148809 l -0.15678,-1.387736 h 2.8147 2.81525 l -0.11194,-1.174427 c -0.25104,-2.638619 -0.35968,-3.095717 -0.88299,-3.717439 -0.68104,-0.809211 -1.43774,-1.133048 -2.74615,-1.129497 z m -64.7985,0.0039 c -0.1589,0.0014 -0.32417,0.0042 -0.49552,0.01694 -1.90789,0.09637 -2.62632,0.511876 -3.35781,1.941286 -0.94843,1.853332 -0.88542,6.733955 0.10434,8.086315 0.22612,0.308959 0.75647,0.738248 1.17839,0.953378 1.01868,0.519439 3.48832,0.527512 4.56334,0.01272 0.90005,-0.429162 1.68526,-1.798007 1.68526,-2.937478 0,-0.710395 -0.004,-0.71217 -1.17447,-0.711324 l -1.17446,8.45e-4 -0.3356,1.061322 c -0.31318,0.990233 -0.39138,1.066311 -1.16132,1.130343 -0.69335,0.05748 -0.89024,-0.02959 -1.23042,-0.549702 -0.33431,-0.510396 -0.40491,-1.08926 -0.40491,-3.32243 0,-3.197916 0.27979,-3.915369 1.52662,-3.915369 0.85521,0 1.27015,0.337701 1.27015,1.033386 0,1.039852 0.20585,1.20418 1.50917,1.20418 h 1.23788 l -0.13613,-1.146954 c -0.24682,-2.085114 -1.22226,-2.880798 -3.60471,-2.857932 z m -39.77275,0.01272 c -0.16402,-0.0014 -0.33516,0.0014 -0.51339,0.0085 -1.83572,0.08114 -2.72464,0.582035 -3.38317,1.907179 -0.34742,0.698939 -0.41926,1.360855 -0.41926,3.863804 0,3.468034 0.31909,4.448121 1.68612,5.181171 v 4.65e-4 c 1.02168,0.547885 3.38888,0.558535 4.46676,0.02113 0.81512,-0.407438 1.41162,-1.379538 1.64726,-2.684521 l 0.13135,-0.727089 h -1.33699 c -1.24195,0 -1.33659,0.03381 -1.33659,0.509466 0,0.815887 -0.61448,1.503924 -1.34268,1.503924 -0.92337,0 -1.3423,-0.713774 -1.3423,-2.286888 v -1.292852 h 2.71688 2.71683 l -0.12218,-1.783129 c -0.21219,-3.095464 -1.10752,-4.198884 -3.56846,-4.221115 z m 84.81706,0.187659 0.068,4.940808 0.0679,4.940849 0.7581,0.67726 h 8.5e-4 c 0.6981,0.623326 0.86179,0.669564 2.06626,0.582414 0.98162,-0.07101 1.44852,-0.226541 1.8705,-0.623074 l 0.56233,-0.528231 v 0.486305 c 0,0.45063 0.10946,0.486303 1.48558,0.486303 h 1.48558 l -0.14106,-1.174467 c -0.0777,-0.646025 -0.14284,-3.112583 -0.14284,-5.481339 l -0.002,-4.306828 h -1.34268 -1.34226 l -0.004,4.083118 c -0.004,4.61414 -0.13489,5.159616 -1.26666,5.270265 -1.27957,0.125109 -1.41478,-0.367283 -1.41478,-5.152302 v -4.201039 h -1.35452 z m -105.31795,1.441434 c 0.13061,0.0042 0.2667,0.04691 0.40787,0.122142 0.26035,0.13948 0.57958,0.524174 0.70958,0.85511 0.37448,0.952955 0.2984,5.165998 -0.11116,6.145496 -0.28909,0.692092 -0.45798,0.832329 -1.00274,0.832329 -0.84496,0 -1.10591,-0.3377 -1.38071,-1.786595 -0.61746,-3.255819 0.11495,-6.237378 1.3772,-6.168655 z m 10.10758,0 c 0.43816,-0.03805 0.99928,0.294588 1.26229,0.786048 0.33389,0.623456 0.28613,5.811262 -0.0597,6.498071 -0.19525,0.387573 -0.49919,0.580387 -0.99099,0.628316 -1.11921,0.109041 -1.43748,-0.748814 -1.43748,-3.872554 0,-2.634013 0.28023,-3.705182 1.04644,-3.999222 0.0566,-0.02114 0.1167,-0.03381 0.17921,-0.04227 z m 9.99268,0.124684 c 0.82154,0 1.34269,0.713987 1.34269,1.839891 v 0.845008 h -1.34269 -1.3423 v -0.845008 c 0,-1.125904 0.5207,-1.839891 1.3423,-1.839891 z m 104.57514,0 c 0.92569,0 1.15223,0.272611 1.3475,1.62231 l 0.15378,1.062589 h -1.47075 -1.47033 l 0.14495,-0.950714 c 0.21893,-1.43368 0.44283,-1.734185 1.29465,-1.734185 z m 25.50597,4.22e-4 c 0.9369,0 1.24959,0.444462 1.24959,1.775268 v 0.909717 h -1.34226 c -1.28724,0 -1.34227,-0.02535 -1.34227,-0.566735 0,-0.311495 0.14584,-0.915551 0.32417,-1.34226 0.28276,-0.67675 0.42464,-0.77599 1.11069,-0.77599 z m -100.2128,0.111584 c 0.71588,0 0.93466,0.105245 1.16441,0.559254 0.38334,0.757521 0.38462,5.727703 9.8e-4,6.488477 -0.20921,0.41589 -0.49036,0.576794 -1.09445,0.627429 -1.31624,0.110312 -1.52701,-0.409129 -1.52279,-3.753706 0.004,-3.431389 0.18555,-3.921453 1.4511,-3.921453 z m -73.94353,2.349356 v 1.006716 1.006716 h 2.57311 2.57264 v -1.006843 -1.006715 h -2.57264 z m 49.66881,0 v 1.006716 1.006716 h 2.5727 2.57306 v -1.006843 -1.006715 h -2.57306 z m 145.31708,1.609714 c 0.0849,0.0027 0.15925,0.01272 0.21978,0.03805 0.42281,0.162291 0.26626,2.448807 -0.21851,3.188279 -0.4435,0.676837 -1.55875,0.736642 -1.89849,0.101857 -0.29415,-0.549322 -0.29922,-1.931101 -0.0124,-2.472602 0.2185,-0.408706 1.31318,-0.869819 1.90688,-0.854604 z"
       inkscape:export-xdpi="96"
       inkscape:export-ydpi="96"
       inkscape:export-filename="Z:\9  Sonstiges\Vorlagen Logo\Neu\EAH Hochschulbibliothek Banner_Oben_1.png" />
    <g
       aria-label="Hochschulbibliothek"
       transform="scale(0.9422648,1.0612728)"
       id="text850-1"
       style="font-style:normal;font-variant:normal;font-weight:normal;font-stretch:normal;font-size:30.505px;line-height:1.25;font-family:'Univers LT Std';-inkscape-font-specification:'Univers LT Std';fill:#ffffff;fill-opacity:1;stroke:none;stroke-width:0.762626">
      <path
         d="m 91.520591,26.713377 v -10.06665 h 7.717765 v 10.06665 h 2.806464 V 4.6887676 H 99.238356 V 14.206327 H 91.520591 V 4.6887676 h -2.80646 V 26.713377 Z"
         style="font-style:normal;font-variant:normal;font-weight:normal;font-stretch:normal;font-family:'Univers LT Std';-inkscape-font-specification:'Univers LT Std';fill:#ffffff;fill-opacity:1;stroke-width:0.762626"
         id="path1562" />
      <path
         d="m 112.32494,24.974592 c -2.59292,0 -3.23353,-1.799795 -3.23353,-6.802615 0,-4.20969 1.31172,-5.12484 3.23353,-5.12484 1.92182,0 3.23353,0.91515 3.23353,5.12484 0,5.00282 -0.6406,6.802615 -3.23353,6.802615 z m 0,2.043835 c 3.26404,0 5.85696,-0.97616 5.85696,-7.778775 0,-4.51474 -0.51858,-8.23635 -5.85696,-8.23635 -5.33837,0 -5.85696,3.72161 -5.85696,8.23635 0,6.802615 2.59293,7.778775 5.85696,7.778775 z"
         style="font-style:normal;font-variant:normal;font-weight:normal;font-stretch:normal;font-family:'Univers LT Std';-inkscape-font-specification:'Univers LT Std';fill:#ffffff;fill-opacity:1;stroke-width:0.762626"
         id="path1564" />
      <path
         d="m 132.79374,16.250162 c 0.15252,-3.447065 -1.64727,-5.24686 -4.72828,-5.24686 -5.33837,0 -5.85696,3.72161 -5.85696,8.23635 0,6.802615 2.59293,7.778775 5.85696,7.778775 1.70828,0 4.94181,-1.09818 4.8503,-5.42989 h -2.62343 c 0.0915,2.775955 -1.64727,3.386055 -2.22687,3.386055 -2.59292,0 -3.23353,-1.799795 -3.23353,-6.802615 0,-4.20969 1.31172,-5.12484 3.23353,-5.12484 0.94566,0 2.19636,0.67111 2.13535,3.203025 z"
         style="font-style:normal;font-variant:normal;font-weight:normal;font-stretch:normal;font-family:'Univers LT Std';-inkscape-font-specification:'Univers LT Std';fill:#ffffff;fill-opacity:1;stroke-width:0.762626"
         id="path1566" />
      <path
         d="m 148.25971,26.713377 v -10.92079 c 0,-3.47757 -1.46424,-4.789285 -4.08767,-4.789285 -2.01333,0 -3.17252,0.48808 -4.17918,2.287875 h -0.12202 V 4.6887676 h -2.50141 V 26.713377 h 2.50141 v -9.059985 c 0,-2.592925 0.6406,-4.606255 3.14201,-4.606255 2.13535,0 2.74545,1.34222 2.74545,3.23353 v 10.43271 z"
         style="font-style:normal;font-variant:normal;font-weight:normal;font-stretch:normal;font-family:'Univers LT Std';-inkscape-font-specification:'Univers LT Std';fill:#ffffff;fill-opacity:1;stroke-width:0.762626"
         id="path1568" />
      <path
         d="m 162.5665,22.320657 c 0,-4.69777 -7.68726,-4.63676 -7.68726,-7.351705 0,-1.34222 1.03717,-2.07434 2.37939,-2.07434 1.58626,0 2.4404,0.85414 2.4099,2.470905 h 2.77595 c 0.21354,-3.0505 -2.13535,-4.362215 -4.8808,-4.362215 -4.33171,0 -5.30787,2.592925 -5.30787,4.20969 0,4.606255 7.68726,4.667265 7.68726,7.412715 0,1.58626 -1.15919,2.348885 -2.65393,2.348885 -2.53192,0 -2.56242,-2.07434 -2.56242,-2.958985 h -2.83697 c -0.0915,3.53858 1.98283,5.00282 5.30787,5.00282 3.0505,0 5.36888,-1.311715 5.36888,-4.69777 z"
         style="font-style:normal;font-variant:normal;font-weight:normal;font-stretch:normal;font-family:'Univers LT Std';-inkscape-font-specification:'Univers LT Std';fill:#ffffff;fill-opacity:1;stroke-width:0.762626"
         id="path1570" />
      <path
         d="m 176.84279,16.250162 c 0.15252,-3.447065 -1.64727,-5.24686 -4.72828,-5.24686 -5.33837,0 -5.85696,3.72161 -5.85696,8.23635 0,6.802615 2.59293,7.778775 5.85696,7.778775 1.70828,0 4.94181,-1.09818 4.8503,-5.42989 h -2.62343 c 0.0915,2.775955 -1.64727,3.386055 -2.22687,3.386055 -2.59292,0 -3.23353,-1.799795 -3.23353,-6.802615 0,-4.20969 1.31172,-5.12484 3.23353,-5.12484 0.94566,0 2.19636,0.67111 2.13535,3.203025 z"
         style="font-style:normal;font-variant:normal;font-weight:normal;font-stretch:normal;font-family:'Univers LT Std';-inkscape-font-specification:'Univers LT Std';fill:#ffffff;fill-opacity:1;stroke-width:0.762626"
         id="path1572" />
      <path
         d="m 192.30876,26.713377 v -10.92079 c 0,-3.47757 -1.46424,-4.789285 -4.08767,-4.789285 -2.01333,0 -3.17252,0.48808 -4.17918,2.287875 h -0.12202 V 4.6887676 h -2.50141 V 26.713377 h 2.50141 v -9.059985 c 0,-2.592925 0.6406,-4.606255 3.14201,-4.606255 2.13535,0 2.74545,1.34222 2.74545,3.23353 v 10.43271 z"
         style="font-style:normal;font-variant:normal;font-weight:normal;font-stretch:normal;font-family:'Univers LT Std';-inkscape-font-specification:'Univers LT Std';fill:#ffffff;fill-opacity:1;stroke-width:0.762626"
         id="path1574" />
      <path
         d="m 204.93778,21.527527 c 0,2.56242 -1.67778,3.569085 -3.02,3.569085 -1.76929,0 -2.62343,-1.250705 -2.62343,-3.11151 v -10.67675 h -2.50141 v 11.744425 c 0,2.62343 1.46424,3.96565 4.14868,3.96565 1.61677,0 3.08101,-0.762625 3.90464,-2.165855 h 0.0915 v 1.860805 h 2.65393 c -0.0915,-1.067675 -0.15252,-2.13535 -0.15252,-3.203025 v -12.202 h -2.50141 z"
         style="font-style:normal;font-variant:normal;font-weight:normal;font-stretch:normal;font-family:'Univers LT Std';-inkscape-font-specification:'Univers LT Std';fill:#ffffff;fill-opacity:1;stroke-width:0.762626"
         id="path1576" />
      <path
         d="m 214.39427,4.6887676 h -2.50141 V 26.713377 h 2.50141 z"
         style="font-style:normal;font-variant:normal;font-weight:normal;font-stretch:normal;font-family:'Univers LT Std';-inkscape-font-specification:'Univers LT Std';fill:#ffffff;fill-opacity:1;stroke-width:0.762626"
         id="path1578" />
      <path
         d="m 221.44088,18.385512 c 0,-2.043835 0.12202,-5.338375 2.89797,-5.338375 2.68444,0 3.0505,2.13535 3.0505,6.253525 0,2.31838 0,5.67393 -3.14201,5.67393 -3.08101,0 -2.80646,-4.240195 -2.80646,-6.58908 z m 0,6.497565 h 0.061 c 0.85414,1.433735 1.92181,2.13535 3.53858,2.13535 2.4709,0 4.97231,-0.97616 4.97231,-7.74827 0,-3.84363 -0.12202,-8.266855 -5.09433,-8.266855 -1.46424,0 -2.53192,0.640605 -3.38606,1.860805 h -0.0915 V 4.6887676 h -2.50141 V 26.713377 h 2.50141 z"
         style="font-style:normal;font-variant:normal;font-weight:normal;font-stretch:normal;font-family:'Univers LT Std';-inkscape-font-specification:'Univers LT Std';fill:#ffffff;fill-opacity:1;stroke-width:0.762626"
         id="path1580" />
      <path
         d="m 236.41877,11.308352 h -2.50141 v 15.405025 h 2.50141 z m -2.65393,-3.9351445 h 2.80646 V 4.6887676 h -2.80646 z"
         style="font-style:normal;font-variant:normal;font-weight:normal;font-stretch:normal;font-family:'Univers LT Std';-inkscape-font-specification:'Univers LT Std';fill:#ffffff;fill-opacity:1;stroke-width:0.762626"
         id="path1582" />
      <path
         d="m 243.46537,18.385512 c 0,-2.043835 0.12202,-5.338375 2.89797,-5.338375 2.68444,0 3.0505,2.13535 3.0505,6.253525 0,2.31838 0,5.67393 -3.14201,5.67393 -3.08101,0 -2.80646,-4.240195 -2.80646,-6.58908 z m 0,6.497565 h 0.061 c 0.85414,1.433735 1.92181,2.13535 3.53858,2.13535 2.4709,0 4.97231,-0.97616 4.97231,-7.74827 0,-3.84363 -0.12202,-8.266855 -5.09433,-8.266855 -1.46424,0 -2.53192,0.640605 -3.38606,1.860805 h -0.0915 V 4.6887676 h -2.50141 V 26.713377 h 2.50141 z"
         style="font-style:normal;font-variant:normal;font-weight:normal;font-stretch:normal;font-family:'Univers LT Std';-inkscape-font-specification:'Univers LT Std';fill:#ffffff;fill-opacity:1;stroke-width:0.762626"
         id="path1584" />
      <path
         d="m 258.44326,4.6887676 h -2.50141 V 26.713377 h 2.50141 z"
         style="font-style:normal;font-variant:normal;font-weight:normal;font-stretch:normal;font-family:'Univers LT Std';-inkscape-font-specification:'Univers LT Std';fill:#ffffff;fill-opacity:1;stroke-width:0.762626"
         id="path1586" />
      <path
         d="m 265.21531,11.308352 h -2.50141 v 15.405025 h 2.50141 z m -2.65393,-3.9351445 h 2.80646 V 4.6887676 h -2.80646 z"
         style="font-style:normal;font-variant:normal;font-weight:normal;font-stretch:normal;font-family:'Univers LT Std';-inkscape-font-specification:'Univers LT Std';fill:#ffffff;fill-opacity:1;stroke-width:0.762626"
         id="path1588" />
      <path
         d="m 274.97687,24.974592 c -2.59293,0 -3.23353,-1.799795 -3.23353,-6.802615 0,-4.20969 1.31171,-5.12484 3.23353,-5.12484 1.92181,0 3.23353,0.91515 3.23353,5.12484 0,5.00282 -0.64061,6.802615 -3.23353,6.802615 z m 0,2.043835 c 3.26403,0 5.85696,-0.97616 5.85696,-7.778775 0,-4.51474 -0.51859,-8.23635 -5.85696,-8.23635 -5.33838,0 -5.85696,3.72161 -5.85696,8.23635 0,6.802615 2.59292,7.778775 5.85696,7.778775 z"
         style="font-style:normal;font-variant:normal;font-weight:normal;font-stretch:normal;font-family:'Univers LT Std';-inkscape-font-specification:'Univers LT Std';fill:#ffffff;fill-opacity:1;stroke-width:0.762626"
         id="path1590" />
      <path
         d="m 282.54205,11.308352 v 1.89131 h 2.53191 v 10.951295 c 0,1.76929 1.06768,2.74545 3.44707,2.74545 0.82363,0 1.64727,-0.18303 2.4709,-0.24404 v -1.921815 c -0.54909,0.06101 -0.94565,0.12202 -1.12868,0.12202 -2.28788,0 -2.28788,-1.250705 -2.28788,-2.226865 v -9.426045 h 3.35555 v -1.89131 h -3.35555 V 7.2206825 l -2.50141,1.128685 v 2.9589845 z"
         style="font-style:normal;font-variant:normal;font-weight:normal;font-stretch:normal;font-family:'Univers LT Std';-inkscape-font-specification:'Univers LT Std';fill:#ffffff;fill-opacity:1;stroke-width:0.762626"
         id="path1592" />
      <path
         d="m 304.13957,26.713377 v -10.92079 c 0,-3.47757 -1.46424,-4.789285 -4.08767,-4.789285 -2.01333,0 -3.17252,0.48808 -4.17918,2.287875 H 295.7507 V 4.6887676 h -2.50141 V 26.713377 h 2.50141 v -9.059985 c 0,-2.592925 0.6406,-4.606255 3.14201,-4.606255 2.13535,0 2.74545,1.34222 2.74545,3.23353 v 10.43271 z"
         style="font-style:normal;font-variant:normal;font-weight:normal;font-stretch:normal;font-family:'Univers LT Std';-inkscape-font-specification:'Univers LT Std';fill:#ffffff;fill-opacity:1;stroke-width:0.762626"
         id="path1594" />
      <path
         d="m 310.97264,17.927937 c 0.0305,-4.2707 1.34222,-5.033325 2.92848,-5.033325 1.8303,0 3.081,0.54909 3.081,5.033325 z m 8.66342,1.89131 v -1.311715 c 0,-5.094335 -1.09818,-7.50423 -5.4909,-7.50423 -5.33838,0 -5.85696,3.72161 -5.85696,8.23635 0,6.802615 2.59292,7.778775 5.85696,7.778775 3.23353,0 5.33837,-1.555755 5.36888,-4.972315 h -2.74545 c -0.0915,1.555755 -0.97616,2.92848 -2.68444,2.92848 -1.95232,0 -3.11151,-0.85414 -3.11151,-5.155345 z"
         style="font-style:normal;font-variant:normal;font-weight:normal;font-stretch:normal;font-family:'Univers LT Std';-inkscape-font-specification:'Univers LT Std';fill:#ffffff;fill-opacity:1;stroke-width:0.762626"
         id="path1596" />
      <path
         d="m 326.28609,18.080462 h 0.061 l 5.4909,8.632915 h 3.17252 l -6.03999,-8.78544 5.12484,-6.619585 h -3.0505 l -4.69777,6.65009 h -0.061 V 4.6887676 h -2.50141 V 26.713377 h 2.50141 z"
         style="font-style:normal;font-variant:normal;font-weight:normal;font-stretch:normal;font-family:'Univers LT Std';-inkscape-font-specification:'Univers LT Std';fill:#ffffff;fill-opacity:1;stroke-width:0.762626"
         id="path1598" />
    </g>
    <path
       id="path846-3-3"
       style="fill:#ffffff;stroke-width:0.223733;fill-opacity:1"
       d="m 173.48143,57.645876 c -0.84593,0.0085 -1.68481,0.164833 -2.19601,0.4653 -1.24831,0.733344 -1.79057,1.729874 -1.79057,3.29056 0,2.018884 0.56281,2.832532 3.1324,4.531005 1.16899,0.772693 2.36872,1.666476 2.66618,1.985832 1.06669,1.145347 0.81344,3.946223 -0.41632,4.604419 -0.23668,0.126804 -0.97202,0.230346 -1.63366,0.230346 -0.91218,0 -1.32456,-0.11328 -1.70621,-0.468807 -0.60223,-0.561071 -0.92371,-1.336978 -0.92371,-2.230548 0,-0.580472 -0.0779,-0.656295 -0.67113,-0.656295 -0.6273,0 -0.67054,0.05495 -0.6663,0.838921 0.009,1.117832 0.70936,2.611824 1.45978,3.103538 0.33391,0.218935 1.02181,0.458917 1.52883,0.533937 2.17712,0.322061 3.99698,-0.400252 4.69048,-1.861783 0.45832,-0.96572 0.48946,-3.304509 0.0549,-4.136037 -0.45778,-0.876242 -1.33142,-1.625648 -3.56014,-3.054128 -2.24179,-1.436893 -2.74015,-2.193483 -2.55083,-3.872978 0.13224,-1.17324 0.62737,-1.763643 1.76434,-2.10426 1.30605,-0.391374 2.58589,0.05664 3.00131,1.050799 0.17498,0.41885 0.31869,1.016692 0.31869,1.32827 0,0.480346 0.10187,0.566692 0.67116,0.566692 0.60909,0 0.67049,-0.0672 0.66627,-0.727046 -0.009,-1.143443 -0.7563,-2.546567 -1.59962,-2.998213 -0.54052,-0.289515 -1.39372,-0.428189 -2.23971,-0.419271 z m -75.770768,0.145819 v 4.21e-4 c -0.288257,-0.0027 -0.646074,0.06467 -1.066103,0.203296 -1.022223,0.337277 -1.428779,1.255955 -1.428779,3.228473 v 1.461533 h -0.894836 c -0.805412,0 -0.894837,0.05579 -0.894837,0.559297 0,0.50342 0.0892,0.559252 0.894837,0.559252 h 0.894836 v 4.922084 4.922043 h 0.559295 0.559679 V 68.737802 63.82844 l 1.062632,-0.06847 c 0.906884,-0.05832 1.073283,-0.142005 1.134276,-0.571512 0.06638,-0.466692 -0.01269,-0.503337 -1.092765,-0.503337 h -1.164409 l 0.114955,-1.605277 c 0.126806,-1.773913 0.429628,-2.198214 1.569431,-2.198214 0.539901,0 0.632758,-0.08157 0.572827,-0.503338 -0.05448,-0.384191 -0.340665,-0.582161 -0.821009,-0.586388 z m 10.955658,0.1699 -0.47231,1.634524 c -0.25993,0.89915 -0.56446,1.886677 -0.67726,2.194285 -0.11286,0.30769 -0.91754,2.975514 -1.78832,5.928756 -0.87085,2.953244 -1.62617,5.495288 -1.67827,5.649091 -0.0613,0.181318 0.13396,0.28022 0.554,0.28022 0.62279,0 0.67376,-0.08241 1.28635,-2.069732 l 0.63791,-2.069306 h 2.889 2.88899 l 0.59515,2.013391 c 0.57493,1.946483 0.61791,2.015924 1.29855,2.083718 0.38715,0.03803 0.70207,0.03803 0.70038,0 -0.002,-0.03803 -1.03896,-3.543476 -2.30439,-7.788768 l -2.30088,-7.718859 -0.81445,-0.06847 z m 27.94016,0.02535 v 7.830694 7.830737 h 0.66065 0.66108 l 0.0169,-7.830737 0.0127,-7.830694 h -0.67549 z m 23.93865,0 -0.009,2.852735 c -0.009,2.288495 -0.0609,2.78228 -0.27981,2.497496 -0.74529,-0.970748 -2.68151,-1.178523 -3.92365,-0.421385 -1.27226,0.775653 -1.70434,2.100836 -1.71186,5.250612 -0.009,3.134477 0.42138,4.454251 1.71186,5.264179 0.98563,0.618554 2.85333,0.518975 3.61081,-0.192729 0.64041,-0.601602 0.8232,-0.610097 0.8232,-0.03805 0,0.33474 0.14919,0.447843 0.59158,0.447843 h 0.59159 l -0.14248,-1.510477 c -0.0786,-0.830596 -0.14371,-4.354462 -0.1446,-7.830693 l -9.8e-4,-6.320262 h -0.5598 z m -157.7608353,4.26e-4 0.071015,6.543927 c 0.068467,6.298959 0.089602,6.579602 0.5767924,7.491685 0.6238779,1.167704 1.3835538,1.68575 2.7185863,1.854303 h 4.239e-4 c 2.5017632,0.315724 3.8803711,-0.243025 4.7171391,-1.910685 0.55211,-1.100502 0.560226,-1.19805 0.62785,-7.547137 l 0.06804,-6.432093 h -0.683813 -0.683768 l -0.0012,5.984674 c -6.34e-4,3.391744 -0.100585,6.342282 -0.2303452,6.809608 -0.3541828,1.275734 -1.3390912,1.971885 -2.7889154,1.971885 -1.4498252,0 -2.434647,-0.696151 -2.7889577,-1.971885 C 4.2574147,70.314327 4.1576659,67.363789 4.1568221,63.972045 L 4.1559763,57.987371 H 3.4700106 Z m 22.9770393,0.223583 c -0.764705,0 -0.797419,0.03381 -0.797419,0.796951 0,0.764665 0.02959,0.794292 0.727049,0.727049 0.639388,-0.06171 0.735753,-0.157647 0.797419,-0.796954 0.0672,-0.697461 0.03803,-0.727046 -0.727049,-0.727046 z m 36.118619,0 c -0.61792,0 -0.67113,0.06213 -0.67113,0.782964 0,0.720917 0.05325,0.783006 0.67113,0.783006 0.617958,0 0.671128,-0.06213 0.671128,-0.783006 0,-0.72092 -0.05325,-0.782964 -0.671128,-0.782964 z m 79.760407,0 c -0.74577,0 -0.78296,0.03805 -0.78296,0.782964 0,0.74577 0.0381,0.783006 0.78296,0.783006 0.74581,0 0.78301,-0.03805 0.78301,-0.783006 0,-0.745771 -0.0381,-0.782964 -0.78301,-0.782964 z m 47.655,0 c -0.74577,0 -0.78296,0.03805 -0.78296,0.782964 0,0.74577 0.0382,0.783006 0.78296,0.783006 0.74577,0 0.78301,-0.03805 0.78301,-0.783006 0,-0.745771 -0.038,-0.782964 -0.78301,-0.782964 z m -79.91113,1.41783 c 0.0642,-0.06425 2.39522,7.995739 2.4691,8.537665 0.0338,0.243026 -4.36777,0.370243 -4.73155,0.136937 -0.1716,-0.110312 1.99137,-8.403303 2.26245,-8.674434 z m -41.911064,0.380809 -0.559297,0.255283 c -0.484443,0.220624 -0.559251,0.399406 -0.559251,1.337442 v 1.08275 h -0.895306 c -0.805408,0 -0.894841,0.05579 -0.894841,0.559254 0,0.503463 0.0896,0.559297 0.894841,0.559297 h 0.895306 v 4.377622 c 0,4.562238 0.09764,5.115532 0.965168,5.465152 1.13237,0.456253 2.413009,0.163987 2.306583,-0.526499 -0.05706,-0.369399 -0.205409,-0.462636 -0.651898,-0.408704 -0.358411,0.04354 -0.753759,-0.105245 -1.039937,-0.391378 -0.432119,-0.432162 -0.461368,-0.719016 -0.461368,-4.489035 v -4.027235 h 0.993572 c 1.056208,0 1.329115,-0.18808 1.10849,-0.762888 -0.09595,-0.250632 -0.427385,-0.355451 -1.119437,-0.355451 h -0.982625 v -1.337442 z m 128.984424,2.433718 c -0.69911,-0.0014 -1.3974,0.172443 -1.91555,0.521681 -1.38777,0.935246 -1.65751,1.710431 -1.7442,5.008559 -0.0901,3.425346 0.2574,4.631932 1.5721,5.456019 0.60313,0.378275 1.02404,0.451731 2.24492,0.390956 1.30121,-0.06467 1.594,-0.162291 2.18296,-0.726625 0.60511,-0.579795 1.11995,-1.735454 1.12332,-2.522434 6.8e-4,-0.159341 -0.276,-0.279796 -0.64141,-0.279796 -0.57198,0 -0.65748,0.09382 -0.7795,0.856844 -0.22527,1.409209 -1.48225,2.085157 -2.96677,1.595217 -0.99176,-0.327132 -1.41778,-1.17269 -1.48601,-2.948846 l -0.054,-1.405192 2.98774,-0.06298 2.98777,-0.06256 -0.0866,-1.72717 c -0.10099,-2.017996 -0.45574,-2.859667 -1.5035,-3.564948 -0.52171,-0.351222 -1.22163,-0.527637 -1.92075,-0.529118 z m -47.58598,0.0038 c -1.31911,-0.02113 -2.66914,0.617031 -3.23942,1.883213 -0.33728,0.748897 -0.41209,1.484905 -0.41209,4.053406 0,3.522048 0.21683,4.243391 1.52096,5.061899 1.05975,0.665001 3.47631,0.52354 4.30552,-0.252324 0.73085,-0.683641 0.89784,-0.999657 1.08972,-2.062798 0.14666,-0.812337 0.13103,-0.838881 -0.50118,-0.838881 -0.58373,0 -0.66737,0.09087 -0.78993,0.857266 -0.22528,1.409209 -1.48229,2.084735 -2.96681,1.594794 -1.14996,-0.37954 -1.53593,-1.404346 -1.44975,-3.8507 l 0.0211,-0.615214 h 2.93709 2.93748 l -0.10313,-1.733721 c -0.0604,-1.016268 -0.26162,-2.038918 -0.48676,-2.470869 -0.55913,-1.072437 -1.69886,-1.60667 -2.8628,-1.626282 z m -18.43987,0.0085 c -0.71534,0.01272 -1.44995,0.270499 -2.08638,0.806168 l -0.68817,0.579371 v -0.579371 c 0,-0.454268 -0.11031,-0.57895 -0.51161,-0.57895 h -0.51167 l 0.0524,5.537256 c 0.0296,3.045549 0.0583,6.468782 0.0642,7.606986 0.0127,2.055352 0.0169,2.069347 0.57053,2.069347 h 0.55977 v -2.566262 -2.566092 l 0.81398,0.552703 c 1.42075,0.964155 3.31913,0.631696 4.30556,-0.753716 0.84446,-1.185921 1.12425,-5.495372 0.50427,-7.765608 -0.41167,-1.506459 -1.70731,-2.367994 -3.07298,-2.341958 z m -89.295617,4.67e-4 c -1.211575,-0.02113 -2.443734,0.478314 -3.041069,1.513095 -0.525653,0.910605 -0.854815,4.395375 -0.605153,6.408512 0.210903,1.701218 0.731441,2.68118 1.669519,3.144153 1.00697,0.496956 2.983801,0.442856 3.884346,-0.106093 0.775905,-0.473074 1.385073,-1.598725 1.385073,-2.560006 0,-0.441461 -0.113261,-0.566268 -0.51293,-0.566268 -0.419693,0 -0.562508,0.185121 -0.785627,1.019394 -0.228231,0.853082 -0.404901,1.074299 -1.082707,1.357518 -1.041839,0.435333 -2.22793,0.176668 -2.818206,-0.613861 -0.317834,-0.425905 -0.442348,-0.987992 -0.469271,-2.122222 l -0.03805,-1.542766 2.99652,-0.06256 2.996015,-0.06256 -0.126803,-1.674338 c -0.06974,-0.92079 -0.310228,-2.050328 -0.534783,-2.510176 -0.515551,-1.055023 -1.706713,-1.599822 -2.918289,-1.621885 z m 9.769825,0.0027 c -0.646827,0 -1.688709,0.578739 -2.100752,1.167028 -0.347421,0.495856 -0.349111,0.494714 -0.349111,-0.222316 0,-0.619905 -0.07905,-0.720918 -0.559718,-0.720918 H 47.33707 v 5.481296 5.481761 h 0.538332 0.537826 l 0.07735,-4.123313 c 0.08833,-4.715661 0.23119,-5.132946 1.94306,-5.68624 0.750631,-0.242603 0.93068,-0.405324 0.93068,-0.839388 0,-0.39349 -0.123413,-0.537867 -0.458366,-0.537825 z m 69.658502,0.0027 c -0.95215,0.0014 -2.08321,0.508239 -2.40442,1.077045 -0.18386,0.325442 -0.22992,0.300506 -0.34447,-0.183432 -0.0964,-0.408282 -0.3043,-0.579244 -0.76943,-0.63309 -0.51682,-0.06001 -0.61032,-0.0039 -0.49464,0.297969 0.0786,0.204565 0.14244,3.635321 0.14244,7.624482 v 7.253058 h 0.55929 0.55926 V 75.317888 72.73823 l 0.64796,0.479288 c 1.56475,1.156885 3.8953,0.669989 4.78883,-1.000123 0.43989,-0.822271 0.49239,-1.252826 0.49239,-4.052096 0,-2.823995 -0.0499,-3.225262 -0.50554,-4.078385 -0.58373,-1.092516 -1.46302,-1.627043 -2.67184,-1.625354 z m -64.770102,0.0014 c -1.83389,0.0042 -2.901214,1.025396 -2.901214,2.770615 0,1.395386 0.417157,1.963431 2.157557,2.936588 1.830043,1.023412 2.354638,1.668971 2.354638,2.898636 0,1.204772 -0.58626,1.783975 -1.80498,1.783975 -1.070282,0 -1.569901,-0.454141 -1.755571,-1.596529 -0.117498,-0.723158 -0.224006,-0.854222 -0.694292,-0.854222 -0.437995,0 -0.570453,0.12848 -0.625694,0.607352 -0.09595,0.831146 0.563903,2.138198 1.274087,2.524165 0.805068,0.437488 2.830967,0.423201 3.590306,-0.02535 0.80287,-0.4743 1.115928,-1.006674 1.274973,-2.166771 0.224006,-1.634946 -0.285713,-2.432787 -2.445551,-3.826231 -1.035837,-0.668212 -1.947838,-1.382369 -2.026492,-1.587357 -0.486769,-1.268505 0.249787,-2.43938 1.534945,-2.43938 0.956971,0 1.678269,0.674046 1.678269,1.568547 0,0.447844 0.112008,0.534824 0.689052,0.534824 0.657393,0 0.682287,-0.03381 0.54615,-0.727046 -0.336009,-1.713307 -1.158871,-2.407766 -2.846183,-2.401808 z m 151.011982,0.01272 c -0.81358,-0.0027 -1.65546,0.258241 -2.15232,0.734064 -0.76679,0.734611 -0.92807,0.74019 -0.92807,0.02959 0,-0.447462 -0.11194,-0.559297 -0.55925,-0.559297 h -0.55929 v 5.481339 l 4.6e-4,5.481338 h 0.67112 0.67114 l 8.4e-4,-3.747153 c 6.9e-4,-2.061105 0.10488,-4.120566 0.23162,-4.576439 0.28953,-1.042006 1.15917,-1.744243 2.16106,-1.744243 1.86031,0 2.08069,0.631358 2.08069,5.962401 v 4.105434 h 0.55929 0.55925 v -4.597402 c 0,-5.104163 -0.11282,-5.617645 -1.38288,-6.274362 -0.38713,-0.200337 -0.86546,-0.29628 -1.35363,-0.297547 z m -187.680259,0.0085 c -0.813861,-0.0085 -1.682665,0.251477 -2.318841,0.736683 l -0.792558,0.604266 v -0.570622 c 0,-0.459594 -0.109042,-0.570624 -0.559297,-0.570624 h -0.559252 v 5.481295 5.481339 h 0.533893 0.533938 l 0.09679,-3.858987 c 0.103551,-4.149983 0.329247,-5.148287 1.322607,-5.843974 0.621805,-0.4355 1.970913,-0.477893 2.516304,-0.07903 0.620074,0.45342 0.802576,1.790229 0.808323,5.923051 l 0.0042,3.859452 h 0.559339 0.559633 v -4.482061 c 0,-5.046471 -0.150885,-5.75302 -1.361913,-6.37922 -0.386304,-0.199915 -0.854899,-0.297971 -1.343105,-0.301353 z m 214.502759,0.0085 c -0.17668,-0.0027 -0.36223,0.0038 -0.55626,0.02113 -1.03402,0.08579 -1.33325,0.215553 -1.86525,0.810943 -0.51327,0.574427 -0.63356,0.917748 -0.63356,1.807175 0,1.31555 0.61116,2.167701 2.20519,3.075138 1.82506,1.038922 2.26943,1.580043 2.26943,2.762708 0,1.311703 -0.54864,1.884483 -1.80498,1.884483 -1.0705,0 -1.56969,-0.454436 -1.75427,-1.596529 -0.10699,-0.662296 -0.25104,-0.870324 -0.63968,-0.925861 -0.28739,-0.04227 -0.55484,0.06804 -0.627,0.256128 -0.235,0.612634 0.34616,2.120531 1.04384,2.707639 0.55256,0.464958 0.9196,0.575905 1.90853,0.575905 2.20328,0 3.21583,-0.977383 3.21583,-3.104002 0,-1.351515 -0.6185,-2.196947 -2.32797,-3.181305 -2.02793,-1.167705 -2.50198,-1.778396 -2.25461,-2.904721 0.38421,-1.748262 3.24031,-1.505616 3.24031,0.275146 0,0.558071 0.0824,0.636598 0.67113,0.636598 0.78006,0 0.87139,-0.430852 0.35334,-1.670407 -0.3901,-0.933597 -1.20654,-1.410687 -2.44419,-1.429156 z m -145.327938,0.0042 c -0.851392,0.0039 -1.719478,0.196534 -2.205233,0.55621 -1.201727,0.889347 -1.738031,3.045212 -1.55329,6.244225 0.139903,2.420532 0.545264,3.506708 1.542809,4.132063 0.601264,0.377006 1.023749,0.450041 2.243651,0.389263 1.297502,-0.06467 1.594414,-0.162714 2.175945,-0.720073 1.021425,-0.978567 1.240773,-1.896103 1.232581,-5.157967 -0.0089,-3.399773 -0.341502,-4.418367 -1.667323,-5.102091 -0.454942,-0.234572 -1.106976,-0.344884 -1.76914,-0.341504 z m 95.040388,0.0085 c -1.52898,-0.02959 -2.41849,0.481866 -3.05111,1.736383 -0.44658,0.885626 -0.50335,1.333003 -0.50335,3.966466 0,3.416217 0.28952,4.479145 1.41872,5.202556 0.87074,0.557861 2.78084,0.613229 3.75543,0.109466 0.71425,-0.369398 1.31387,-1.482243 1.31387,-2.438959 0,-0.450166 -0.11123,-0.566268 -0.54134,-0.566268 -0.43013,0 -0.57375,0.149614 -0.69648,0.727047 -0.28867,1.358447 -1.39959,1.99623 -2.64958,1.520999 -1.00503,-0.382077 -1.33326,-1.512124 -1.33833,-4.597444 -0.004,-2.885026 0.23839,-3.754677 1.24704,-4.461057 1.06792,-0.748009 2.50387,-0.05283 2.76492,1.338752 0.11953,0.638924 0.24258,0.773371 0.70827,0.773371 0.53765,0 0.5585,-0.04733 0.44737,-1.033343 -0.17072,-1.51445 -0.89809,-2.157472 -2.56084,-2.264193 -0.1077,-0.0085 -0.2126,-0.01272 -0.31445,-0.01272 z m 32.66513,0 c -1.52903,-0.02959 -2.41893,0.481866 -3.05155,1.736383 -0.44658,0.885626 -0.50334,1.333003 -0.50334,3.966466 0,3.429487 0.30685,4.551759 1.43225,5.237976 0.85485,0.521258 2.79174,0.565678 3.72095,0.08538 0.77455,-0.400674 1.33482,-1.380807 1.33482,-2.334523 0,-0.572693 -0.087,-0.682075 -0.54135,-0.682075 -0.43012,0 -0.57331,0.149614 -0.69605,0.727047 -0.28867,1.358447 -1.39958,1.99623 -2.64957,1.520956 -0.82374,-0.313185 -1.25583,-1.438497 -1.40866,-3.669342 -0.28233,-4.12268 0.98754,-6.372541 3.10222,-5.496638 0.49163,0.20372 0.708,0.5008 0.90664,1.243529 0.21724,0.811661 0.35207,0.976115 0.80309,0.976115 0.51212,0 0.53559,-0.05706 0.42556,-1.033343 -0.17074,-1.514449 -0.89767,-2.157473 -2.56043,-2.264192 -0.1077,-0.0085 -0.21259,-0.01272 -0.31445,-0.01272 z m 8.75221,0.06678 c -1.79946,0 -2.53747,0.409974 -3.24599,1.804092 -0.38418,0.756083 -0.4474,1.323197 -0.4474,4.012789 0,3.518457 0.22062,4.250237 1.52094,5.04309 0.90258,0.550336 2.80828,0.581486 3.89923,0.06383 0.82163,-0.390109 1.61269,-1.707136 1.62231,-2.701553 0.004,-0.411242 -0.11795,-0.503337 -0.66631,-0.503337 -0.58959,0 -0.67113,0.07777 -0.67113,0.640952 0,1.420113 -1.4871,2.325858 -2.99909,1.826831 -1.00128,-0.330514 -1.47553,-1.332285 -1.47553,-3.117062 v -1.364532 h 2.90865 c 3.24953,-4.3e-5 2.99838,0.153427 2.92787,-1.789681 -0.057,-1.566392 -0.39898,-2.536042 -1.14913,-3.254764 -0.62667,-0.600378 -0.82916,-0.660605 -2.22442,-0.660605 z m -189.092044,0.09484 c -0.08369,0.0042 -0.197378,0.04227 -0.332625,0.05706 -0.653591,0.07692 -0.575316,-0.149613 -2.640396,7.638473 -0.222316,0.839219 -0.480219,1.443146 -0.572357,1.342261 -0.09215,-0.100585 -0.58757,-1.844374 -1.101095,-3.874752 -1.349823,-5.336962 -1.273283,-5.145753 -2.061444,-5.145753 -0.532881,0 -0.645052,0.07945 -0.55097,0.391375 0.06509,0.215553 0.730427,2.556033 1.478608,5.201712 0.748179,2.645593 1.405869,4.942539 1.461532,5.104205 0.06298,0.18301 0.374893,0.26754 0.826243,0.223584 l 0.725314,-0.07016 1.376326,-4.860884 c 1.542852,-5.449049 1.75291,-6.026773 1.390739,-6.006526 z m -10.702661,0.01703 v 5.481339 5.481761 h 0.671132 0.671553 v -5.481761 -5.481339 h -0.671553 z m 36.244908,0 v 5.481339 5.481761 h 0.67113 0.671128 v -5.481805 -5.481339 h -0.671128 z m 10.01454,0 v 4.66e-4 c -0.339814,0 -0.617835,0.06931 -0.617835,0.154682 0,0.08496 0.716482,2.564908 1.592175,5.510585 l 1.591751,5.355474 -0.485415,1.704514 c -0.267117,0.937613 -0.537784,1.881056 -0.600801,2.096399 -0.09002,0.307268 0.02114,0.39138 0.516016,0.390957 l 0.630048,-8.46e-4 1.790146,-6.317179 c 0.984399,-3.474458 1.958022,-6.897139 2.163684,-7.606139 l 0.374048,-1.288964 h -0.615213 c -0.610565,0 -0.624722,0.03381 -1.820702,4.470693 -0.662932,2.459035 -1.273071,4.397107 -1.355785,4.30687 -0.08285,-0.09045 -0.513692,-1.472859 -0.957772,-3.072514 -0.444041,-1.599698 -0.982626,-3.537771 -1.196742,-4.306872 -0.357564,-1.28385 -0.440108,-1.398177 -1.007561,-1.398177 z m 69.857737,0 v 5.481339 5.481761 h 0.55926 0.55929 v -5.481761 -5.481339 h -0.55929 z m 47.65501,0 v 5.481339 5.481761 h 0.67113 0.67113 v -5.48155 -5.481339 h -0.67113 z m 7.71446,0.690361 c 0.29924,-0.0014 0.59586,0.101857 0.99754,0.309805 0.73602,0.380385 1.13208,1.333257 1.13208,2.724714 v 0.973495 h -2.23752 -2.23709 v -1.018084 c 0,-1.267241 0.48008,-2.227633 1.33482,-2.669643 0.40996,-0.212171 0.71114,-0.318682 1.01017,-0.320371 z m 28.18485,4.22e-4 c 0.3005,-0.0038 0.59563,0.09848 0.99575,0.305578 0.74649,0.385883 1.14079,1.235245 1.20462,2.59627 l 0.0464,0.994035 -2.29307,0.06383 -2.29344,0.06383 v -0.91014 c 0,-1.276834 0.51627,-2.369941 1.31382,-2.782407 0.42011,-0.217243 0.72552,-0.327134 1.02595,-0.330937 z m -75.80224,0.02535 c 1.23267,0.02959 2.09201,1.14691 2.09201,2.840098 v 1.139936 h -2.26415 -2.26419 l 0.0968,-1.339175 c 0.10989,-1.520787 0.67751,-2.341199 1.78922,-2.585365 0.18976,-0.04227 0.37404,-0.05959 0.55012,-0.05537 z m -60.52354,0.02959 c 0.604732,0.03381 1.203752,0.328825 1.625817,0.893995 0.403636,0.540785 0.48178,1.011788 0.550975,3.334222 0.08448,2.842465 -0.13187,4.101587 -0.806169,4.696599 -0.928444,0.819102 -2.536678,0.646237 -3.281773,-0.352492 -0.420961,-0.564325 -0.467537,-0.931695 -0.467537,-3.685995 0,-2.459923 0.07481,-3.195677 0.381231,-3.754972 0.432966,-0.79053 1.220071,-1.175608 1.997668,-1.13123 z m -47.042873,0.0042 c 1.071127,0.07226 1.860262,1.071764 1.995933,2.707682 l 0.102703,1.239598 h -2.402272 -2.402232 l 0.14709,-1.062634 c 0.226542,-1.635075 0.542432,-2.226871 1.407391,-2.637308 0.406168,-0.19273 0.794248,-0.271344 1.151305,-0.247252 z m 116.736753,0.09679 c 1.93482,-0.05495 2.52966,1.020915 2.53727,4.584765 0.004,2.63266 -0.26923,3.660044 -1.13994,4.270143 -1.27734,0.894417 -2.86068,0.209213 -3.33468,-1.443613 -0.2836,-0.98816 -0.28023,-4.562744 0.004,-5.591016 0.28317,-1.019479 1.10811,-1.796822 1.93169,-1.820279 z m -37.83712,0.04733 c 1.88025,0 2.34462,0.908828 2.34462,4.588273 0,2.128688 -0.0778,2.741578 -0.43783,3.447366 -0.2409,0.472144 -0.60143,0.921296 -0.80134,0.997968 -0.72333,0.277681 -1.84501,0.12975 -2.41449,-0.318258 -0.76019,-0.597971 -1.04209,-1.685033 -1.04209,-4.017186 0,-3.249649 0.72489,-4.698332 2.35113,-4.698332 z m 10.18626,0 c 1.56745,0 2.23013,1.334397 2.22134,4.47331 -0.009,2.445933 -0.27515,3.56909 -1.00232,4.196348 -0.62772,0.541504 -1.66859,0.639348 -2.50451,0.235417 -0.88854,-0.429329 -1.18626,-1.481522 -1.18626,-4.191951 0,-3.543265 0.61352,-4.713209 2.47175,-4.713209 z"
       inkscape:export-xdpi="96"
       inkscape:export-ydpi="96"
       inkscape:export-filename="Z:\9  Sonstiges\Vorlagen Logo\Neu\EAH Hochschulbibliothek Banner_Oben_1.png" />
    <path
       id="path846-7-5-34"
       style="fill:#009999;fill-opacity:1;stroke-width:0.223733"
       d="M 43.758387,1.1024905 41.44001,5.0864549 C 37.573332,11.73178 35.182682,15.907925 35.182682,16.015913 c 0,0.05664 3.875724,0.10228 8.613279,0.10228 4.737511,0 8.6137,-0.0486 8.6137,-0.107771 0,-0.05916 -0.402787,-0.765719 -0.894839,-1.5699 -0.492221,-0.804181 -0.894841,-1.50925 -0.894841,-1.566392 0,-0.05706 -0.402788,-0.761833 -0.89484,-1.565971 -0.49222,-0.804181 -0.89484,-1.5070115 -0.89484,-1.5620405 0,-0.05495 -0.54091,-0.992176 -1.202023,-2.082452 C 46.967207,6.5734316 46.09481,5.0847653 45.690078,4.355648 45.285177,3.6265287 44.685009,2.5961449 44.356102,2.0661388 Z m 0.143699,17.5026765 c -1.551346,0 -3.110806,0.0085 -4.304251,0.02535 l -4.339585,0.06086 1.935579,3.355651 c 1.064577,1.845809 2.725815,4.715365 3.692125,6.376601 0.966267,1.661192 2.014869,3.498633 2.330169,4.083162 0.315298,0.584486 0.591417,1.06259 0.613438,1.06259 0.02113,0 0.42485,-0.679415 0.895262,-1.510011 0.47041,-0.830639 0.97844,-1.711826 1.129031,-1.957895 0.150461,-0.245984 0.346152,-0.592263 0.434741,-0.769441 0.08833,-0.17709 1.494287,-2.644198 3.124078,-5.48176 l 2.963301,-5.158897 -4.219045,-0.06086 c -1.160265,-0.01694 -2.703539,-0.02535 -4.254843,-0.02535 z m 10.740701,1.321295 c -0.06425,-0.0027 -0.577176,0.82561 -1.139978,1.840777 -0.562763,1.015213 -2.130634,3.761989 -3.484517,6.10395 -2.903032,5.021619 -3.649267,6.348284 -3.649267,6.488899 0,0.05706 3.783797,0.103974 8.408334,0.103974 h 8.407912 l -0.484148,-0.783388 c -0.587318,-0.950335 -5.148542,-8.820209 -6.772035,-11.684483 -0.643614,-1.13554 -1.222268,-2.067236 -1.2863,-2.069771 z m -21.697671,0.0085 c -0.09382,0.0027 -1.973788,3.179363 -3.691659,6.238524 -0.245984,0.438289 -0.712888,1.24995 -1.037274,1.803667 -0.324596,0.553718 -0.813945,1.409334 -1.088414,1.901514 -0.274303,0.492221 -0.98905,1.725732 -1.587822,2.740902 l -1.088369,1.845574 h 8.495272 8.495739 L 40.717698,33.175714 C 38.50955,29.248385 33.04068,19.932026 32.945118,19.93456 Z m -8.262857,17.215611 0.415045,0.727047 c 0.228232,0.399828 1.466012,2.539338 2.750495,4.754292 1.284527,2.214911 3.017528,5.210628 3.851126,6.657073 l 1.515715,2.629914 0.424724,-0.539603 c 0.233727,-0.296701 0.424259,-0.591881 0.424259,-0.655406 0,-0.0634 0.491419,-0.953843 1.091882,-1.978438 2.15633,-3.679147 6.515104,-11.35532 6.515104,-11.473832 0,-0.06635 -3.822556,-0.12087 -8.494387,-0.12087 z m 21.263354,0 2.03524,3.523865 c 1.119227,1.938074 2.27163,3.89897 2.560852,4.357973 0.289093,0.459 0.525653,0.876284 0.525653,0.927172 0,0.05073 0.704603,1.279199 1.565969,2.729068 0.861365,1.449866 1.566394,2.71909 1.566394,2.820402 0,0.678145 0.762169,-0.473245 3.60514,-5.446766 1.770322,-3.09707 3.640898,-6.369289 4.157,-7.271483 l 0.938499,-1.640231 h -8.477354 z m 19.350045,0.946405 -2.326236,4.057335 c -1.279369,2.231606 -2.858611,4.963294 -3.509454,6.070771 -0.650841,1.107477 -1.459715,2.517066 -1.79754,3.132363 -0.3377,0.615254 -0.713777,1.244374 -0.835416,1.398175 -0.176238,0.222739 1.542598,0.279798 8.441977,0.279798 h 8.663067 L 73.435272,52.196471 C 72.503448,50.623274 69.567366,45.54354 69.006506,44.533991 68.698814,43.980234 68.22743,43.174573 67.95875,42.74389 67.689942,42.313206 67.162769,41.407294 66.786905,40.7305 66.411165,40.053707 65.921988,39.184142 65.699799,38.798386 Z m -42.939637,0.128056 -0.530005,0.861154 c -0.291631,0.473667 -1.341626,2.270405 -2.333211,3.993136 -0.991544,1.722774 -2.359247,4.088614 -3.039295,5.257629 -1.74416,2.998212 -2.525477,4.411183 -2.525477,4.565534 0,0.07311 3.83553,0.132718 8.523678,0.132718 h 8.52414 L 30.479955,52.196178 C 30.207344,51.734684 28.267707,48.40249 26.17004,44.791009 Z m 21.575356,0.618257 c -0.130175,-0.0803 -2.073998,3.217272 -7.594771,12.88342 l -0.747629,1.308616 h 8.319661 8.320084 l -0.555788,-0.950783 c -0.305578,-0.522948 -0.835458,-1.45405 -1.17751,-2.069307 -0.341925,-0.615296 -0.991119,-1.722942 -1.442343,-2.46123 -0.451181,-0.738349 -0.862083,-1.445109 -0.913182,-1.570805 -0.204986,-0.504267 -4.063594,-7.050394 -4.20852,-7.139911 z"
       inkscape:export-xdpi="96"
       inkscape:export-ydpi="96"
       inkscape:export-filename="Z:\9  Sonstiges\Vorlagen Logo\Neu\EAH Hochschulbibliothek Banner_Oben_1.png" />
  </g>
</svg>
