<?xml version="1.0" encoding="UTF-8" standalone="no"?>
<svg
   xmlns:dc="http://purl.org/dc/elements/1.1/"
   xmlns:cc="http://creativecommons.org/ns#"
   xmlns:rdf="http://www.w3.org/1999/02/22-rdf-syntax-ns#"
   xmlns:svg="http://www.w3.org/2000/svg"
   xmlns="http://www.w3.org/2000/svg"
   xmlns:sodipodi="http://sodipodi.sourceforge.net/DTD/sodipodi-0.dtd"
   xmlns:inkscape="http://www.inkscape.org/namespaces/inkscape"
   width="285mm"
   height="56mm"
   viewBox="0 0 285 56"
   version="1.1"
   id="svg2063"
   inkscape:version="1.0.1 (3bc2e813f5, 2020-09-07)"
   sodipodi:docname="KATALOGplus_weiß.svg">
  <defs
     id="defs2057" />
  <sodipodi:namedview
     id="base"
     pagecolor="#ffffff"
     bordercolor="#666666"
     borderopacity="1.0"
     inkscape:pageopacity="0.0"
     inkscape:pageshadow="2"
     inkscape:zoom="0.578891"
     inkscape:cx="279.91477"
     inkscape:cy="109.5172"
     inkscape:document-units="mm"
     inkscape:current-layer="layer1"
     inkscape:document-rotation="0"
     showgrid="false"
     showguides="true"
     inkscape:guide-bbox="true"
     inkscape:pagecheckerboard="true"
     inkscape:window-width="1920"
     inkscape:window-height="1137"
     inkscape:window-x="-8"
     inkscape:window-y="-8"
     inkscape:window-maximized="1" />
  <metadata
     id="metadata2060">
    <rdf:RDF>
      <cc:Work
         rdf:about="">
        <dc:format>image/svg+xml</dc:format>
        <dc:type
           rdf:resource="http://purl.org/dc/dcmitype/StillImage" />
        <dc:title></dc:title>
      </cc:Work>
    </rdf:RDF>
  </metadata>
  <g
     inkscape:label="Ebene 1"
     inkscape:groupmode="layer"
     id="layer1">
    <g
       aria-label="KATALOG"
       transform="scale(1.0116207,0.98851279)"
       id="text2642"
       style="font-style:normal;font-variant:normal;font-weight:300;font-stretch:condensed;font-size:61.0853px;line-height:1.25;font-family:Bahnschrift;-inkscape-font-specification:'Bahnschrift Light Condensed';fill:#ffffff;fill-opacity:1;stroke-width:0.715841">
      <path
         d="M 3.8463104,25.851176 17.477161,0.617697 h 4.802116 L 4.1445784,32.890302 Z M 0.26709355,0.617697 H 4.5621537 V 43.985874 H 0.26709355 Z m 9.90249945,20.222575 2.71424,-4.444194 10.767477,27.589796 h -5.070557 z"
         style="font-style:normal;font-variant:normal;font-weight:300;font-stretch:condensed;font-family:Bahnschrift;-inkscape-font-specification:'Bahnschrift Light Condensed';fill:#ffffff;fill-opacity:1;stroke-width:0.715841"
         id="path2673" />
      <path
         d="m 34.269652,0.617697 h 5.189865 L 49.481324,43.985874 H 44.709035 L 36.864585,5.4198129 29.020134,43.985874 h -4.772289 z m -4.444194,28.842522 h 14.734443 v 3.996792 H 29.825458 Z"
         style="font-style:normal;font-variant:normal;font-weight:300;font-stretch:condensed;font-family:Bahnschrift;-inkscape-font-specification:'Bahnschrift Light Condensed';fill:#ffffff;fill-opacity:1;stroke-width:0.715841"
         id="path2675" />
      <path
         d="m 57.564389,4.167087 h 4.29506 v 39.818787 h -4.29506 z M 49.183056,0.617697 H 70.240782 V 4.6144891 H 49.183056 Z"
         style="font-style:normal;font-variant:normal;font-weight:300;font-stretch:condensed;font-family:Bahnschrift;-inkscape-font-specification:'Bahnschrift Light Condensed';fill:#ffffff;fill-opacity:1;stroke-width:0.715841"
         id="path2677" />
      <path
         d="m 80.560857,0.617697 h 5.189864 L 95.772528,43.985874 H 91.000239 L 83.155789,5.4198129 75.311339,43.985874 H 70.53905 Z m -4.444194,28.842522 h 14.734442 v 3.996792 H 76.116663 Z"
         style="font-style:normal;font-variant:normal;font-weight:300;font-stretch:condensed;font-family:Bahnschrift;-inkscape-font-specification:'Bahnschrift Light Condensed';fill:#ffffff;fill-opacity:1;stroke-width:0.715841"
         id="path2679" />
      <path
         d="m 99.650013,0.617697 h 4.295057 v 43.368177 h -4.295057 z m 3.042337,39.371385 h 14.97305 v 3.996792 h -14.97305 z"
         style="font-style:normal;font-variant:normal;font-weight:300;font-stretch:condensed;font-family:Bahnschrift;-inkscape-font-specification:'Bahnschrift Light Condensed';fill:#ffffff;fill-opacity:1;stroke-width:0.715841"
         id="path2681" />
      <path
         d="m 132.9069,44.433276 q -3.40026,0 -5.81623,-1.282552 -2.41597,-1.282553 -3.69852,-3.728351 -1.25273,-2.445798 -1.25273,-5.905708 V 11.086906 q 0,-3.4599094 1.25273,-5.9057075 1.28255,-2.4457982 3.69852,-3.7283509 2.41597,-1.2825527 5.81623,-1.2825527 3.40026,0 5.81623,1.2825527 2.41597,1.2825527 3.6687,3.7283509 1.28255,2.4457981 1.28255,5.9057075 v 22.429759 q 0,3.45991 -1.28255,5.905708 -1.25273,2.445798 -3.6687,3.728351 -2.41597,1.282552 -5.81623,1.282552 z m 0,-4.205579 q 2.05805,0 3.48974,-0.745671 1.46151,-0.775497 2.20718,-2.23701 0.7755,-1.461514 0.7755,-3.519563 V 10.878119 q 0,-2.0580501 -0.7755,-3.5195636 -0.74567,-1.4615136 -2.20718,-2.2071838 -1.43169,-0.7754969 -3.48974,-0.7754969 -2.05805,0 -3.51956,0.7754969 -1.43169,0.7456702 -2.20719,2.2071838 -0.74567,1.4615135 -0.74567,3.5195636 v 22.847334 q 0,2.058049 0.74567,3.519563 0.7755,1.461513 2.20719,2.23701 1.46151,0.745671 3.51956,0.745671 z"
         style="font-style:normal;font-variant:normal;font-weight:300;font-stretch:condensed;font-family:Bahnschrift;-inkscape-font-specification:'Bahnschrift Light Condensed';fill:#ffffff;fill-opacity:1;stroke-width:0.715841"
         id="path2683" />
      <path
         d="m 170.63783,20.631484 v 12.646567 q 0,3.519563 -1.2229,6.025014 -1.2229,2.505452 -3.57922,3.817832 -2.32649,1.312379 -5.60744,1.312379 -3.3406,0 -5.72675,-1.222899 -2.38614,-1.252726 -3.63887,-3.609043 -1.2229,-2.356318 -1.2229,-5.667094 V 11.295694 q 0,-3.5195633 1.2229,-5.9951883 1.2229,-2.5054518 3.54939,-3.8178313 2.35632,-1.3123795 5.63727,-1.3123795 3.22129,0 5.51796,1.2825527 2.29666,1.2527259 3.48973,3.698524 1.2229,2.4159714 1.2229,5.8162274 v 2.087876 h -4.65298 v -2.087876 q 0,-2.1177033 -0.65619,-3.6090436 -0.62636,-1.4913404 -1.87909,-2.2668374 -1.25272,-0.7754969 -3.04233,-0.7754969 -1.93874,0 -3.31078,0.8351505 -1.37203,0.8053238 -2.08787,2.3861446 -0.71585,1.550994 -0.71585,3.7581778 V 33.93424 q 0,1.998396 0.74567,3.430083 0.74567,1.431687 2.14753,2.177357 1.40186,0.74567 3.40026,0.74567 1.93874,0 3.31078,-0.805324 1.37203,-0.805323 2.08787,-2.356317 0.71585,-1.550994 0.71585,-3.728351 v -8.769081 h -6.26363 v -3.996793 z"
         style="font-style:normal;font-variant:normal;font-weight:300;font-stretch:condensed;font-family:Bahnschrift;-inkscape-font-specification:'Bahnschrift Light Condensed';fill:#ffffff;fill-opacity:1;stroke-width:0.715841"
         id="path2685" />
    </g>
    <g
       aria-label="plus
"
       transform="scale(1.1648549,0.85847602)"
       id="text2646"
       style="font-style:normal;font-variant:normal;font-weight:normal;font-stretch:condensed;font-size:69.8638px;line-height:1.25;font-family:Bahnschrift;-inkscape-font-specification:'Bahnschrift Condensed';stroke-width:0.818712;fill:#ffffff;fill-opacity:1">
      <path
         d="m 153.61654,15.230534 h 6.4815 v 49.805248 h -6.4815 z m 13.03123,35.921182 q -2.52437,0 -4.4006,-1.603319 -1.84211,-1.60332 -2.62671,-4.468827 l 0.47758,-5.492223 q 0,1.773886 0.47759,3.036073 0.51169,1.262188 1.43275,1.944452 0.95517,0.64815 2.25147,0.64815 1.94445,0 3.03607,-1.50098 1.12574,-1.535093 1.12574,-4.264148 V 26.146753 q 0,-2.626716 -1.12574,-4.093582 -1.09162,-1.50098 -3.03607,-1.50098 -1.2963,0 -2.25147,0.64815 -0.92106,0.64815 -1.43275,1.876225 -0.47759,1.228075 -0.47759,2.933734 l -0.71637,-4.912299 q 1.09162,-3.104299 3.1043,-4.775845 2.01267,-1.705659 4.46882,-1.705659 2.52438,0 4.29826,1.330414 1.808,1.296301 2.72906,3.820676 0.92105,2.524376 0.92105,6.10626 v 13.81584 q 0,3.615997 -0.98928,6.208599 -0.95517,2.558489 -2.79728,3.923016 -1.84211,1.330414 -4.46883,1.330414 z"
         style="font-style:normal;font-variant:normal;font-weight:normal;font-stretch:condensed;font-family:Bahnschrift;-inkscape-font-specification:'Bahnschrift Condensed';fill:#ffffff;fill-opacity:1;stroke-width:0.818712"
         id="path2664" />
      <path
         d="m 186.81042,41.258893 q 0,1.535093 0.64816,2.387923 0.68226,0.852829 1.94445,0.852829 h 1.94445 v 6.140373 h -2.72906 q -3.95713,0 -6.14037,-2.456149 -2.14913,-2.456149 -2.14913,-6.924976 V 1.0394495 h 6.4815 z"
         style="font-style:normal;font-variant:normal;font-weight:normal;font-stretch:condensed;font-family:Bahnschrift;-inkscape-font-specification:'Bahnschrift Condensed';fill:#ffffff;fill-opacity:1;stroke-width:0.818712"
         id="path2666" />
      <path
         d="m 211.23723,15.230534 h 6.48151 v 35.409484 h -6.48151 z m -7.98248,25.72134 q 0,1.910339 1.0234,2.899621 1.02339,0.989282 3.00196,0.989282 1.97856,0 2.96784,-0.989282 0.98928,-1.023396 0.98928,-3.036073 l 0.47759,4.366487 q -0.95517,3.00196 -2.69494,4.50294 -1.73977,1.466867 -4.33238,1.466867 -3.92301,0 -5.93569,-2.524375 -1.97857,-2.524376 -1.97857,-7.402561 V 15.230534 h 6.48151 z"
         style="font-style:normal;font-variant:normal;font-weight:normal;font-stretch:condensed;font-family:Bahnschrift;-inkscape-font-specification:'Bahnschrift Condensed';fill:#ffffff;fill-opacity:1;stroke-width:0.818712"
         id="path2668" />
      <path
         d="m 233.85603,51.151716 q -3.30898,0 -5.73101,-1.262188 -2.38793,-1.296301 -3.68423,-3.684223 -1.2963,-2.422036 -1.2963,-5.662789 v -0.272905 h 6.41328 v 0.272905 q 0,2.285583 1.12574,3.581884 1.12573,1.262188 3.17252,1.262188 2.01268,0 3.13842,-1.228074 1.15984,-1.228075 1.15984,-3.377206 0,-1.432753 -0.68226,-2.319696 -0.64815,-0.921056 -1.67155,-1.432754 -1.02339,-0.545811 -2.89962,-1.228074 -0.13645,-0.03411 -0.2729,-0.06823 -0.10234,-0.03411 -0.23879,-0.102339 -0.10234,-0.03411 -0.20468,-0.06823 -0.0682,-0.03411 -0.17057,-0.06823 -2.52437,-0.955169 -4.29826,-2.046791 -1.73977,-1.091622 -2.93373,-3.138413 -1.19397,-2.046791 -1.19397,-5.25343 0,-3.20664 1.19397,-5.560449 1.22807,-2.35381 3.47954,-3.615998 2.25147,-1.262187 5.32166,-1.262187 3.1043,0 5.35577,1.193961 2.25147,1.193961 3.44543,3.445432 1.19396,2.217356 1.19396,5.287543 v 0.204679 h -6.41328 v -0.272905 q 0,-1.944452 -0.95517,-3.001961 -0.92105,-1.091621 -2.62671,-1.091621 -1.70566,0 -2.66083,1.193961 -0.92106,1.193961 -0.92106,3.343092 0,1.466867 0.64815,2.422036 0.64815,0.921056 1.67155,1.466867 1.05751,0.511698 2.69494,1.057509 0.0682,0.03411 0.17057,0.06823 0.10234,0 0.17056,0.03411 0.0341,0.03411 0.10234,0.03411 0.0682,0 0.10234,0.03411 2.86551,0.921056 4.63939,1.910338 1.808,0.955169 3.07019,3.070186 1.2963,2.115018 1.2963,5.765128 0,3.20664 -1.2963,5.560449 -1.2963,2.319697 -3.71834,3.581885 -2.38792,1.228074 -5.6969,1.228074 z"
         style="font-style:normal;font-variant:normal;font-weight:normal;font-stretch:condensed;font-family:Bahnschrift;-inkscape-font-specification:'Bahnschrift Condensed';fill:#ffffff;fill-opacity:1;stroke-width:0.818712"
         id="path2670" />
    </g>
  </g>
</svg>
