<!DOCTYPE svg PUBLIC "-//W3C//DTD SVG 1.1//EN" "http://www.w3.org/Graphics/SVG/1.1/DTD/svg11.dtd">

<svg fill="none" width="69" height="80" viewBox="0 2 69 80" xmlns="http://www.w3.org/2000/svg">

<path d="M69.4369 62.1344V22.0447L34.7186 2L0 22.0447V62.1344L34.7186 82.1795L69.4369 62.1344Z" fill="#0068FF" />

<path d="M26.1646 31.0977H31.1557L35.569 39.1938C35.9921 39.9832 36.3575 40.6787 36.6654 41.2804C36.9733 41.882 37.209 42.3438 37.3727 42.6657C37.5355 42.9879 37.944 43.8131 38.5983 45.1412L38.627 45.2041L38.3963 31.0977H43.272V53.0816H38.2815L34.4734 46.138C33.9922 45.2866 33.6028 44.5911 33.305 44.0515C33.0061 43.5116 32.7463 43.0239 32.5256 42.5881C32.3048 42.1517 32.0837 41.7105 31.8623 41.2643C31.6408 40.8186 31.3185 40.1491 30.8955 39.2558L31.0402 53.0817H26.1646V31.0977Z" fill="white" />

<path d="M22.2787 35.5475V31.0974H14.7531C13.9784 31.118 13.2056 31.1857 12.4391 31.3003C11.5718 31.4468 10.732 31.7249 9.94878 32.125C8.96955 32.6326 8.11462 33.3504 7.44519 34.227C6.58935 35.3596 5.98059 36.6592 5.65823 38.0417C5.31686 39.4269 5.15318 40.8499 5.17113 42.2764C5.15951 43.8372 5.38308 45.391 5.83434 46.8852C6.22947 48.2359 6.93905 49.4737 7.90492 50.4971C8.45887 51.081 9.10888 51.5656 9.82665 51.9298C10.5044 52.2734 11.223 52.5296 11.9652 52.6924C12.6294 52.8399 13.3033 52.9389 13.9818 52.9887C14.6043 53.0295 15.3396 53.0606 16.1877 53.0822H22.2787V41.1866H17.4603V48.4418H15.5385C14.6331 48.4632 13.7297 48.3478 12.8588 48.0995C12.0494 47.7996 11.3698 47.2269 10.9371 46.48C10.5462 45.8729 10.2751 45.1966 10.1383 44.4876C9.99472 43.6861 9.92678 42.8729 9.93543 42.0587C9.88969 40.8405 10.0779 39.6248 10.4899 38.4775C10.7734 37.7012 11.2708 37.0211 11.9246 36.5157C12.4677 36.1193 13.0919 35.8481 13.7523 35.7216C14.4949 35.5972 15.246 35.5296 15.999 35.5194H17.4603" fill="white" />

<path d="M59.5026 42.1212C59.5483 43.3392 59.3601 44.5547 58.9481 45.7018C58.6647 46.478 58.1673 47.1582 57.5135 47.6635C56.9706 48.0604 56.3463 48.3316 55.6858 48.4576C54.9432 48.5827 54.1921 48.6502 53.4391 48.6598H51.9778V35.7374H53.8995C54.8049 35.7161 55.7083 35.8315 56.5793 36.0797C57.3886 36.3799 58.068 36.9525 58.501 37.6992C58.8919 38.3065 59.1631 38.9831 59.2997 39.6923C59.4434 40.4938 59.5113 41.307 59.5026 42.1212H59.5026ZM64.2669 41.903C64.2782 40.3421 64.0546 38.7885 63.6037 37.2941C63.2083 35.9436 62.4987 34.7059 61.5331 33.6822C60.9793 33.0983 60.3293 32.6139 59.6114 32.2502C58.9335 31.9067 58.215 31.6502 57.4728 31.4869C56.8086 31.34 56.1347 31.2412 55.4563 31.1913C54.8337 31.1499 54.0982 31.1187 53.2496 31.0978H47.1594V53.0818H54.6842C55.4592 53.0612 56.2322 52.9937 56.999 52.8796C57.8662 52.7325 58.7059 52.4542 59.4892 52.0542C60.4688 51.547 61.3238 50.8292 61.9928 49.9523C62.8486 48.8197 63.4573 47.5203 63.7798 46.1379C64.1212 44.7526 64.2849 43.3295 64.2669 41.9028" fill="white" />

</svg>