<svg xmlns="http://www.w3.org/2000/svg" width="38" height="38" viewBox="0 0 38 38">
  <g fill="none" fill-rule="evenodd">
    <polygon fill="#FFFFFF" points="0 38 38 38 38 0 0 0"/>
    <polygon fill="#0046C4" points="1.93 38 3.414 38 3.414 0 1.93 0"/>
    <polygon fill="#A4B900" points="4.942 38 6.426 38 6.426 0 4.942 0"/>
    <path fill="#007EEF" d="M34.5860167,19.52345 L33.0296,19.52345 L33.0296,17.8125 L34.5860167,17.8125 L34.5860167,0 L36.0702333,0 L36.0702333,38 L34.5860167,38 L34.5860167,19.52345 Z"/>
    <polygon fill="#DDCD69" points="27.171 38 28.655 38 28.655 0 27.171 0"/>
    <polygon fill="#E62E2E" points="20.369 38 21.853 38 21.853 0 20.369 0"/>
    <polygon fill="#FFC920" points="13.92 38 15.404 38 15.404 0 13.92 0"/>
    <polygon fill="#00AEFA" points="10.586 38 12.07 38 12.07 0 10.586 0"/>
    <path fill="#000000" d="M28.6570983,19.75981 L28.6570983,22.6541433 L30.738865,22.6541433 C31.7376317,22.6370433 33.040715,22.60316 33.040715,21.23231 C33.040715,19.7936933 31.856065,19.7765933 31.2464817,19.75981 L28.6570983,19.75981 Z M28.6570983,15.1054433 L28.6570983,17.5934933 L30.907965,17.5934933 C31.585315,17.5763933 32.685415,17.5428267 32.685415,16.3071933 C32.685415,15.15611 31.6866483,15.1054433 31.111265,15.1054433 L28.6570983,15.1054433 Z M25.8137483,12.87136 L30.4342317,12.87136 C31.6866483,12.87136 32.8206317,12.9220267 33.5483317,13.1588933 C35.0208317,13.6329433 35.613315,14.80081 35.613315,15.9347933 C35.613315,16.5779433 35.444215,16.9671267 35.3932317,17.08556 C34.8517317,18.3040933 33.7006483,18.5412767 33.0574983,18.67681 C33.785515,18.7952433 34.7500817,18.94756 35.4103317,19.6920433 C35.8333983,20.1489933 36.070265,20.8092433 36.070265,21.4862767 C36.070265,22.4172767 35.5794317,23.72036 34.0901483,24.3802933 C33.1930317,24.7697933 32.2281483,24.82046 30.8572983,24.82046 L25.8137483,24.82046 L25.8137483,12.87136 Z M13.9197483,12.87136 L16.7811483,12.87136 L19.4373483,17.27176 C20.3851317,18.94756 21.0957317,20.28326 21.0957317,20.28326 L21.0960483,12.87136 L23.9564983,12.87136 L23.9564983,24.82046 L21.0282817,24.82046 L18.7941983,21.04611 C17.7108817,19.2689767 16.7817817,17.4243933 16.7817817,17.4243933 L16.7801983,24.82046 L13.9197483,24.82046 L13.9197483,12.87136 Z M4.94224833,15.3929615 L4.94224833,22.4172767 L5.856465,22.4172767 C7.44708167,22.3833933 9.64759833,22.2985267 9.64759833,18.8626933 C9.64759833,18.0333433 9.56304833,17.2039933 9.02123167,16.45951 C8.20898167,15.3761933 7.05789833,15.3929767 6.14399833,15.3929767 L4.94224833,15.3929615 Z M1.92979833,12.87136 L5.73803167,12.87136 C7.19343167,12.8881433 9.39363167,12.9220267 10.917115,14.2760933 C12.1524317,15.3929767 12.6264817,17.0687767 12.6264817,18.74426 C12.6264817,19.7765933 12.474165,20.5381767 12.3218483,21.04611 C11.2214317,24.73591 7.887565,24.8036767 6.63483167,24.82046 L1.92979833,24.82046 L1.92979833,12.87136 Z"/>
  </g>
</svg>
