<?xml version="1.0" encoding="UTF-8"?>
<!-- Generator: Adobe Illustrator 26.1.0, SVG Export Plug-In . SVG Version: 6.00 Build 0)  -->
<svg xmlns="http://www.w3.org/2000/svg" xmlns:xlink="http://www.w3.org/1999/xlink" version="1.1" id="Komponente_52_1" x="0px" y="0px" viewBox="0 0 35 32" style="enable-background:new 0 0 35 32;" xml:space="preserve">
<style type="text/css">
	.st0{fill:#FFFFFF;}
</style>
<path class="st0" d="M17.5,0.2C8.8,0.2,1.7,7.3,1.7,16s7.1,15.8,15.8,15.8v0c8.7,0,15.8-7.1,15.8-15.8S26.2,0.2,17.5,0.2z M9.1,27  c0.5-7.7,6-8.6,8.4-8.6c2.4,0,7.9,0.9,8.4,8.6c-2.3,1.8-5.2,2.9-8.4,2.9S11.4,28.7,9.1,27z M13.1,12c0-2.4,2-4.4,4.4-4.4  c2.4,0,4.4,2,4.4,4.4c0,2.4-2,4.4-4.4,4.4c0,0,0,0,0,0c0,0,0,0,0,0C15.1,16.3,13.1,14.4,13.1,12z M27.7,25.3c-0.4-2.6-1.4-4.7-3-6.2  c-0.9-0.9-2-1.6-3.3-2.1c1.5-1.2,2.5-3,2.5-5c0-3.5-2.9-6.4-6.4-6.4s-6.4,2.9-6.4,6.4c0,2.1,1,3.9,2.5,5c-1.2,0.5-2.4,1.1-3.3,2.1  c-1.6,1.5-2.6,3.7-3,6.2c-2.2-2.5-3.6-5.7-3.6-9.3c0-7.6,6.2-13.8,13.8-13.8c7.6,0,13.8,6.2,13.8,13.8  C31.3,19.6,29.9,22.8,27.7,25.3z"></path>
</svg>
